SplineFontDB: 3.0
FontName: Oxanium-SemiBold
FullName: Oxanium SemiBold
FamilyName: Oxanium
Weight: SemiBold
Copyright: Copyright 2019 The Oxanium Project Authors (https://github.com/sevmeyer/oxanium)
Version: 0.000
ItalicAngle: 0
UnderlinePosition: -75
UnderlineWidth: 50
Ascent: 800
Descent: 200
InvalidEm: 0
LayerCount: 2
Layer: 0 1 "Back" 1
Layer: 1 1 "Fore" 0
StyleMap: 0x0040
FSType: 0
OS2Version: 4
OS2_WeightWidthSlopeOnly: 0
OS2_UseTypoMetrics: 1
CreationTime: 1546300800
ModificationTime: 1551956175
PfmFamily: 33
TTFWeight: 600
TTFWidth: 5
LineGap: 250
VLineGap: 0
OS2TypoAscent: 790
OS2TypoAOffset: 0
OS2TypoDescent: -210
OS2TypoDOffset: 0
OS2TypoLinegap: 250
OS2WinAscent: 1000
OS2WinAOffset: 0
OS2WinDescent: 250
OS2WinDOffset: 0
HheadAscent: 790
HheadAOffset: 0
HheadDescent: -210
HheadDOffset: 0
OS2SubXSize: 620
OS2SubYSize: 600
OS2SubXOff: 0
OS2SubYOff: 124
OS2SupXSize: 620
OS2SupYSize: 600
OS2SupXOff: 0
OS2SupYOff: 400
OS2StrikeYSize: 50
OS2StrikeYPos: 250
OS2CapHeight: 690
OS2XHeight: 525
OS2Vendor: '    '
DEI: 91125
LangName: 1033 "" "" "" "" "" "" "" "" "" "Severin Meyer" "" "" "https://sev.dev/fonts/oxanium" "SIL Open Font License 1.1" "http://scripts.sil.org/OFL" "" "Oxanium" "SemiBold"
Encoding: Custom
UnicodeInterp: none
NameList: AGL For New Fonts
DisplaySize: -48
AntiAlias: 1
FitToEm: 0
WinInfo: 0 32 12
BeginPrivate: 2
BlueValues 41 [-10 0 525 535 690 700 740 750 1000 1010]
OtherBlues 11 [-210 -200]
EndPrivate
BeginChars: 375 375

StartChar: exclam
Encoding: 3 33 3
Width: 271
Flags: W
LayerCount: 2
Fore
SplineSet
70 0 m 1,0,-1
 70 131 l 1,1,-1
 201 131 l 1,2,-1
 201 0 l 1,3,-1
 70 0 l 1,0,-1
75 218 m 1,4,-1
 75 690 l 1,5,-1
 197 690 l 1,6,-1
 197 218 l 1,7,-1
 75 218 l 1,4,-1
EndSplineSet
EndChar

StartChar: numbersign
Encoding: 5 35 5
Width: 675
Flags: W
LayerCount: 2
Fore
SplineSet
50 175 m 1,0,-1
 50 275 l 1,1,-1
 171 275 l 1,2,-1
 171 415 l 1,3,-1
 50 415 l 1,4,-1
 50 515 l 1,5,-1
 171 515 l 1,6,-1
 171 690 l 1,7,-1
 276 690 l 1,8,-1
 276 515 l 1,9,-1
 399 515 l 1,10,-1
 399 690 l 1,11,-1
 504 690 l 1,12,-1
 504 515 l 1,13,-1
 625 515 l 1,14,-1
 625 415 l 1,15,-1
 504 415 l 1,16,-1
 504 275 l 1,17,-1
 625 275 l 1,18,-1
 625 175 l 1,19,-1
 504 175 l 1,20,-1
 504 0 l 1,21,-1
 399 0 l 1,22,-1
 399 175 l 1,23,-1
 276 175 l 1,24,-1
 276 0 l 1,25,-1
 171 0 l 1,26,-1
 171 175 l 1,27,-1
 50 175 l 1,0,-1
276 275 m 1,28,-1
 399 275 l 1,29,-1
 399 415 l 1,30,-1
 276 415 l 1,31,-1
 276 275 l 1,28,-1
EndSplineSet
EndChar

StartChar: dollar
Encoding: 6 36 6
Width: 578
Flags: W
LayerCount: 2
Fore
SplineSet
61 46 m 1,0,-1
 61 110 l 1,1,-1
 351 110 l 2,2,3
 395 110 395 110 395 154 c 2,4,-1
 395 215 l 2,5,6
 395 254 395 254 360 261 c 2,7,-1
 178 297 l 2,8,9
 61 321 61 321 61 454 c 2,10,-1
 61 498 l 2,11,12
 61 660 61 660 224 660 c 2,13,-1
 238 660 l 1,14,-1
 238 780 l 1,15,-1
 340 780 l 1,16,-1
 340 660 l 1,17,-1
 438 660 l 1,18,-1
 497 614 l 1,19,-1
 497 550 l 1,20,-1
 227 550 l 2,21,22
 183 550 183 550 183 506 c 2,23,-1
 183 451 l 2,24,25
 183 412 183 412 218 405 c 2,26,-1
 400 369 l 2,27,28
 517 345 517 345 517 213 c 2,29,-1
 517 162 l 2,30,31
 517 0 517 0 354 0 c 2,32,-1
 340 0 l 1,33,-1
 340 -120 l 1,34,-1
 238 -120 l 1,35,-1
 238 0 l 1,36,-1
 120 0 l 1,37,-1
 61 46 l 1,0,-1
EndSplineSet
EndChar

StartChar: ampersand
Encoding: 8 38 8
Width: 670
Flags: W
LayerCount: 2
Fore
SplineSet
65 158 m 2,0,-1
 65 251 l 2,1,2
 65 303 65 303 98 331 c 2,3,-1
 140 366 l 1,4,-1
 105 408 l 2,5,6
 85 432 85 432 85 466 c 2,7,-1
 85 532 l 2,8,9
 85 690 85 690 243 690 c 2,10,-1
 427 690 l 1,11,-1
 480 651 l 1,12,-1
 480 588 l 1,13,-1
 248 588 l 2,14,15
 202 588 202 588 202 542 c 2,16,-1
 202 459 l 2,17,18
 202 413 202 413 248 413 c 2,19,-1
 630 413 l 1,20,-1
 630 311 l 1,21,-1
 530 311 l 1,22,-1
 530 0 l 1,23,-1
 223 0 l 2,24,25
 65 0 65 0 65 158 c 2,0,-1
182 148 m 2,26,27
 182 102 182 102 228 102 c 2,28,-1
 414 102 l 1,29,-1
 414 311 l 1,30,-1
 228 311 l 2,31,32
 182 311 182 311 182 265 c 2,33,-1
 182 148 l 2,26,27
EndSplineSet
EndChar

StartChar: quotesingle
Encoding: 9 39 9
Width: 235
Flags: W
LayerCount: 2
Fore
SplineSet
65 477 m 1,0,-1
 65 740 l 1,1,-1
 170 740 l 1,2,-1
 170 477 l 1,3,-1
 65 477 l 1,0,-1
EndSplineSet
EndChar

StartChar: parenleft
Encoding: 10 40 10
Width: 334
Flags: W
LayerCount: 2
Fore
SplineSet
66 290 m 128,-1,1
 66 560 66 560 227 776 c 1,2,-1
 315 710 l 1,3,4
 184 525 184 525 184 290 c 128,-1,5
 184 55 184 55 315 -130 c 1,6,-1
 227 -196 l 1,7,0
 66 20 66 20 66 290 c 128,-1,1
EndSplineSet
EndChar

StartChar: parenright
Encoding: 11 41 11
Width: 334
Flags: W
LayerCount: 2
Fore
SplineSet
19 -130 m 1,0,1
 149 55 149 55 149 290 c 128,-1,2
 149 525 149 525 19 710 c 1,3,-1
 107 776 l 1,4,5
 268 560 268 560 268 290 c 128,-1,6
 268 20 268 20 107 -196 c 1,7,-1
 19 -130 l 1,0,1
EndSplineSet
EndChar

StartChar: asterisk
Encoding: 12 42 12
Width: 509
Flags: W
LayerCount: 2
Fore
SplineSet
41 503 m 1,0,-1
 68 586 l 1,1,-1
 209 544 l 1,2,-1
 209 690 l 1,3,-1
 300 690 l 1,4,-1
 300 544 l 1,5,-1
 441 586 l 1,6,-1
 468 503 l 1,7,-1
 329 455 l 1,8,-1
 414 336 l 1,9,-1
 343 284 l 1,10,-1
 254 400 l 1,11,-1
 166 284 l 1,12,-1
 95 336 l 1,13,-1
 179 455 l 1,14,-1
 41 503 l 1,0,-1
EndSplineSet
EndChar

StartChar: plus
Encoding: 13 43 13
Width: 578
Flags: W
LayerCount: 2
Fore
SplineSet
61 285 m 1,0,-1
 61 385 l 1,1,-1
 236 385 l 1,2,-1
 236 570 l 1,3,-1
 342 570 l 1,4,-1
 342 385 l 1,5,-1
 517 385 l 1,6,-1
 517 285 l 1,7,-1
 342 285 l 1,8,-1
 342 100 l 1,9,-1
 236 100 l 1,10,-1
 236 285 l 1,11,-1
 61 285 l 1,0,-1
EndSplineSet
EndChar

StartChar: comma
Encoding: 14 44 14
Width: 271
Flags: W
LayerCount: 2
Fore
SplineSet
26 -124 m 1,0,-1
 81 131 l 1,1,-1
 199 131 l 1,2,-1
 211 113 l 1,3,-1
 112 -146 l 1,4,-1
 26 -124 l 1,0,-1
EndSplineSet
EndChar

StartChar: hyphen
Encoding: 15 45 15
Width: 373
Flags: W
LayerCount: 2
Fore
SplineSet
40 255 m 1,0,-1
 40 355 l 1,1,-1
 333 355 l 1,2,-1
 333 255 l 1,3,-1
 40 255 l 1,0,-1
EndSplineSet
EndChar

StartChar: period
Encoding: 16 46 16
Width: 271
Flags: W
LayerCount: 2
Fore
SplineSet
70 0 m 1,0,-1
 70 131 l 1,1,-1
 201 131 l 1,2,-1
 201 0 l 1,3,-1
 70 0 l 1,0,-1
EndSplineSet
EndChar

StartChar: slash
Encoding: 17 47 17
Width: 419
Flags: W
LayerCount: 2
Fore
SplineSet
20 -19 m 1,0,-1
 300 745 l 1,1,-1
 399 709 l 1,2,-1
 119 -55 l 1,3,-1
 20 -19 l 1,0,-1
EndSplineSet
EndChar

StartChar: zero
Encoding: 18 48 18
Width: 578
Flags: W
LayerCount: 2
Fore
SplineSet
56 162 m 2,0,-1
 56 528 l 2,1,2
 56 690 56 690 219 690 c 2,3,-1
 359 690 l 2,4,5
 522 690 522 690 522 528 c 2,6,-1
 522 162 l 2,7,8
 522 0 522 0 359 0 c 2,9,-1
 219 0 l 2,10,11
 56 0 56 0 56 162 c 2,0,-1
178 154 m 2,12,13
 178 110 178 110 222 110 c 2,14,-1
 356 110 l 2,15,16
 400 110 400 110 400 154 c 2,17,-1
 400 536 l 2,18,19
 400 580 400 580 356 580 c 2,20,-1
 222 580 l 2,21,22
 178 580 178 580 178 536 c 2,23,-1
 178 154 l 2,12,13
EndSplineSet
EndChar

StartChar: one
Encoding: 19 49 19
Width: 578
Flags: W
LayerCount: 2
Fore
SplineSet
84 0 m 1,0,-1
 84 110 l 1,1,-1
 244 110 l 1,2,-1
 244 580 l 1,3,-1
 113 580 l 1,4,-1
 113 644 l 1,5,-1
 172 690 l 1,6,-1
 366 690 l 1,7,-1
 366 110 l 1,8,-1
 510 110 l 1,9,-1
 510 0 l 1,10,-1
 84 0 l 1,0,-1
EndSplineSet
EndChar

StartChar: two
Encoding: 20 50 20
Width: 578
Flags: W
LayerCount: 2
Fore
SplineSet
56 0 m 1,0,-1
 56 219 l 2,1,2
 56 352 56 352 173 376 c 2,3,-1
 365 414 l 2,4,5
 400 421 400 421 400 460 c 2,6,-1
 400 536 l 2,7,8
 400 580 400 580 356 580 c 2,9,-1
 76 580 l 1,10,-1
 76 644 l 1,11,-1
 135 690 l 1,12,-1
 359 690 l 2,13,14
 522 690 522 690 522 528 c 2,15,-1
 522 463 l 2,16,17
 522 330 522 330 405 306 c 2,18,-1
 213 268 l 2,19,20
 178 261 178 261 178 222 c 2,21,-1
 178 110 l 1,22,-1
 522 110 l 1,23,-1
 522 0 l 1,24,-1
 56 0 l 1,0,-1
EndSplineSet
EndChar

StartChar: three
Encoding: 21 51 21
Width: 578
Flags: W
LayerCount: 2
Fore
SplineSet
66 46 m 1,0,-1
 66 110 l 1,1,-1
 356 110 l 2,2,3
 400 110 400 110 400 154 c 2,4,-1
 400 259 l 2,5,6
 400 303 400 303 356 303 c 2,7,-1
 140 303 l 1,8,-1
 140 413 l 1,9,-1
 356 413 l 2,10,11
 400 413 400 413 400 457 c 2,12,-1
 400 536 l 2,13,14
 400 580 400 580 356 580 c 2,15,-1
 76 580 l 1,16,-1
 76 644 l 1,17,-1
 135 690 l 1,18,-1
 359 690 l 2,19,20
 522 690 522 690 522 528 c 2,21,-1
 522 460 l 2,22,23
 522 420 522 420 497 395 c 2,24,-1
 462 360 l 1,25,-1
 497 325 l 2,26,27
 522 300 522 300 522 260 c 2,28,-1
 522 162 l 2,29,30
 522 0 522 0 359 0 c 2,31,-1
 125 0 l 1,32,-1
 66 46 l 1,0,-1
EndSplineSet
EndChar

StartChar: four
Encoding: 22 52 22
Width: 578
Flags: W
LayerCount: 2
Fore
SplineSet
56 112 m 1,0,-1
 56 212 l 1,1,-1
 275 690 l 1,2,-1
 378 690 l 1,3,-1
 392 664 l 1,4,-1
 190 222 l 1,5,-1
 400 222 l 1,6,-1
 400 430 l 1,7,-1
 522 430 l 1,8,-1
 522 0 l 1,9,-1
 400 0 l 1,10,-1
 400 112 l 1,11,-1
 56 112 l 1,0,-1
EndSplineSet
EndChar

StartChar: five
Encoding: 23 53 23
Width: 578
Flags: W
LayerCount: 2
Fore
SplineSet
46 46 m 1,0,-1
 46 110 l 1,1,-1
 356 110 l 2,2,3
 400 110 400 110 400 154 c 2,4,-1
 400 269 l 2,5,6
 400 313 400 313 356 313 c 2,7,-1
 56 313 l 1,8,-1
 56 690 l 1,9,-1
 492 690 l 1,10,-1
 492 580 l 1,11,-1
 178 580 l 1,12,-1
 178 423 l 1,13,-1
 359 423 l 2,14,15
 522 423 522 423 522 260 c 2,16,-1
 522 162 l 2,17,18
 522 0 522 0 359 0 c 2,19,-1
 105 0 l 1,20,-1
 46 46 l 1,0,-1
EndSplineSet
EndChar

StartChar: six
Encoding: 24 54 24
Width: 578
Flags: W
LayerCount: 2
Fore
SplineSet
56 162 m 2,0,-1
 56 495 l 2,1,2
 56 690 56 690 252 690 c 2,3,-1
 423 690 l 1,4,-1
 482 644 l 1,5,-1
 482 580 l 1,6,-1
 248 580 l 2,7,8
 178 580 178 580 178 510 c 2,9,-1
 178 423 l 1,10,-1
 359 423 l 2,11,12
 522 423 522 423 522 260 c 2,13,-1
 522 162 l 2,14,15
 522 0 522 0 359 0 c 2,16,-1
 219 0 l 2,17,18
 56 0 56 0 56 162 c 2,0,-1
178 154 m 2,19,20
 178 110 178 110 222 110 c 2,21,-1
 356 110 l 2,22,23
 400 110 400 110 400 154 c 2,24,-1
 400 269 l 2,25,26
 400 313 400 313 356 313 c 2,27,-1
 178 313 l 1,28,-1
 178 154 l 2,19,20
EndSplineSet
EndChar

StartChar: seven
Encoding: 25 55 25
Width: 578
Flags: W
LayerCount: 2
Fore
SplineSet
56 580 m 1,0,-1
 56 690 l 1,1,-1
 522 690 l 1,2,-1
 522 490 l 1,3,-1
 265 0 l 1,4,-1
 156 0 l 1,5,-1
 141 26 l 1,6,-1
 400 516 l 1,7,-1
 400 580 l 1,8,-1
 56 580 l 1,0,-1
EndSplineSet
EndChar

StartChar: eight
Encoding: 26 56 26
Width: 578
Flags: W
LayerCount: 2
Fore
SplineSet
56 162 m 2,0,-1
 56 260 l 2,1,2
 56 300 56 300 81 325 c 2,3,-1
 116 360 l 1,4,-1
 81 395 l 2,5,6
 56 420 56 420 56 460 c 2,7,-1
 56 528 l 2,8,9
 56 690 56 690 219 690 c 2,10,-1
 359 690 l 2,11,12
 522 690 522 690 522 528 c 2,13,-1
 522 460 l 2,14,15
 522 420 522 420 497 395 c 2,16,-1
 462 360 l 1,17,-1
 497 325 l 2,18,19
 522 300 522 300 522 260 c 2,20,-1
 522 162 l 2,21,22
 522 0 522 0 359 0 c 2,23,-1
 219 0 l 2,24,25
 56 0 56 0 56 162 c 2,0,-1
178 154 m 2,26,27
 178 110 178 110 222 110 c 2,28,-1
 356 110 l 2,29,30
 400 110 400 110 400 154 c 2,31,-1
 400 259 l 2,32,33
 400 303 400 303 356 303 c 2,34,-1
 222 303 l 2,35,36
 178 303 178 303 178 259 c 2,37,-1
 178 154 l 2,26,27
178 457 m 2,38,39
 178 413 178 413 222 413 c 2,40,-1
 356 413 l 2,41,42
 400 413 400 413 400 457 c 2,43,-1
 400 536 l 2,44,45
 400 580 400 580 356 580 c 2,46,-1
 222 580 l 2,47,48
 178 580 178 580 178 536 c 2,49,-1
 178 457 l 2,38,39
EndSplineSet
EndChar

StartChar: nine
Encoding: 27 57 27
Width: 578
Flags: W
LayerCount: 2
Fore
SplineSet
56 429 m 2,0,-1
 56 528 l 2,1,2
 56 690 56 690 219 690 c 2,3,-1
 359 690 l 2,4,5
 522 690 522 690 522 528 c 2,6,-1
 522 195 l 2,7,8
 522 0 522 0 326 0 c 2,9,-1
 145 0 l 1,10,-1
 86 46 l 1,11,-1
 86 110 l 1,12,-1
 330 110 l 2,13,14
 400 110 400 110 400 180 c 2,15,-1
 400 267 l 1,16,-1
 219 267 l 2,17,18
 56 267 56 267 56 429 c 2,0,-1
178 421 m 2,19,20
 178 377 178 377 222 377 c 2,21,-1
 400 377 l 1,22,-1
 400 536 l 2,23,24
 400 580 400 580 356 580 c 2,25,-1
 222 580 l 2,26,27
 178 580 178 580 178 536 c 2,28,-1
 178 421 l 2,19,20
EndSplineSet
EndChar

StartChar: less
Encoding: 30 60 30
Width: 578
Flags: W
LayerCount: 2
Fore
SplineSet
64 280 m 1,0,-1
 64 390 l 1,1,-1
 478 588 l 1,2,-1
 520 499 l 1,3,-1
 171 335 l 1,4,-1
 520 171 l 1,5,-1
 478 82 l 1,6,-1
 64 280 l 1,0,-1
EndSplineSet
EndChar

StartChar: equal
Encoding: 31 61 31
Width: 578
Flags: W
LayerCount: 2
Fore
SplineSet
61 175 m 1,0,-1
 61 275 l 1,1,-1
 517 275 l 1,2,-1
 517 175 l 1,3,-1
 61 175 l 1,0,-1
61 395 m 1,4,-1
 61 495 l 1,5,-1
 517 495 l 1,6,-1
 517 395 l 1,7,-1
 61 395 l 1,4,-1
EndSplineSet
EndChar

StartChar: greater
Encoding: 32 62 32
Width: 578
Flags: W
LayerCount: 2
Fore
SplineSet
58 171 m 1,0,-1
 407 335 l 1,1,-1
 58 499 l 1,2,-1
 100 588 l 1,3,-1
 514 390 l 1,4,-1
 514 280 l 1,5,-1
 100 82 l 1,6,-1
 58 171 l 1,0,-1
EndSplineSet
EndChar

StartChar: question
Encoding: 33 63 33
Width: 515
Flags: W
LayerCount: 2
Fore
SplineSet
40 580 m 1,0,-1
 40 644 l 1,1,-1
 99 690 l 1,2,-1
 303 690 l 2,3,4
 465 690 465 690 465 528 c 2,5,-1
 465 441 l 2,6,7
 465 279 465 279 303 279 c 2,8,-1
 280 279 l 1,9,-1
 280 218 l 1,10,-1
 159 218 l 1,11,-1
 159 389 l 1,12,-1
 299 389 l 2,13,14
 343 389 343 389 343 433 c 2,15,-1
 343 536 l 2,16,17
 343 580 343 580 299 580 c 2,18,-1
 40 580 l 1,0,-1
154 0 m 1,19,-1
 154 131 l 1,20,-1
 285 131 l 1,21,-1
 285 0 l 1,22,-1
 154 0 l 1,19,-1
EndSplineSet
EndChar

StartChar: at
Encoding: 34 64 34
Width: 805
Flags: W
LayerCount: 2
Fore
SplineSet
85 13 m 2,0,-1
 85 537 l 2,1,2
 85 690 85 690 238 690 c 2,3,-1
 720 690 l 1,4,-1
 720 60 l 1,5,-1
 463 60 l 2,6,7
 305 60 305 60 305 218 c 2,8,-1
 305 332 l 2,9,10
 305 490 305 490 463 490 c 2,11,-1
 615 490 l 1,12,-1
 615 598 l 1,13,-1
 240 598 l 2,14,15
 190 598 190 598 190 549 c 2,16,-1
 190 1 l 2,17,18
 190 -48 190 -48 240 -48 c 2,19,-1
 700 -48 l 1,20,-1
 700 -101 l 1,21,-1
 647 -140 l 1,22,-1
 238 -140 l 2,23,24
 85 -140 85 -140 85 13 c 2,0,-1
422 208 m 2,25,26
 422 162 422 162 468 162 c 2,27,-1
 604 162 l 1,28,-1
 604 388 l 1,29,-1
 468 388 l 2,30,31
 422 388 422 388 422 342 c 2,32,-1
 422 208 l 2,25,26
EndSplineSet
EndChar

StartChar: A
Encoding: 35 65 35
Width: 653
Flags: W
LayerCount: 2
Fore
SplineSet
19 24 m 1,0,-1
 232 690 l 1,1,-1
 421 690 l 1,2,-1
 634 24 l 1,3,-1
 618 0 l 1,4,-1
 517 0 l 1,5,-1
 469 153 l 1,6,-1
 183 153 l 1,7,-1
 136 0 l 1,8,-1
 35 0 l 1,9,-1
 19 24 l 1,0,-1
217 263 m 1,10,-1
 436 263 l 1,11,-1
 336 580 l 1,12,-1
 317 580 l 1,13,-1
 217 263 l 1,10,-1
EndSplineSet
EndChar

StartChar: B
Encoding: 36 66 36
Width: 649
Flags: W
LayerCount: 2
Fore
SplineSet
85 0 m 1,0,-1
 85 690 l 1,1,-1
 408 690 l 2,2,3
 570 690 570 690 570 528 c 2,4,-1
 570 464 l 2,5,6
 570 430 570 430 550 406 c 2,7,-1
 515 364 l 1,8,-1
 557 329 l 2,9,10
 590 302 590 302 590 249 c 2,11,-1
 590 162 l 2,12,13
 590 0 590 0 428 0 c 2,14,-1
 85 0 l 1,0,-1
207 110 m 1,15,-1
 424 110 l 2,16,17
 468 110 468 110 468 154 c 2,18,-1
 468 259 l 2,19,20
 468 303 468 303 424 303 c 2,21,-1
 207 303 l 1,22,-1
 207 110 l 1,15,-1
207 413 m 1,23,-1
 404 413 l 2,24,25
 448 413 448 413 448 457 c 2,26,-1
 448 536 l 2,27,28
 448 580 448 580 404 580 c 2,29,-1
 207 580 l 1,30,-1
 207 413 l 1,23,-1
EndSplineSet
EndChar

StartChar: C
Encoding: 37 67 37
Width: 619
Flags: W
LayerCount: 2
Fore
SplineSet
75 162 m 2,0,-1
 75 528 l 2,1,2
 75 690 75 690 237 690 c 2,3,-1
 510 690 l 1,4,-1
 569 644 l 1,5,-1
 569 580 l 1,6,-1
 241 580 l 2,7,8
 197 580 197 580 197 536 c 2,9,-1
 197 154 l 2,10,11
 197 110 197 110 241 110 c 2,12,-1
 569 110 l 1,13,-1
 569 46 l 1,14,-1
 510 0 l 1,15,-1
 237 0 l 2,16,17
 75 0 75 0 75 162 c 2,0,-1
EndSplineSet
EndChar

StartChar: D
Encoding: 38 68 38
Width: 685
Flags: W
LayerCount: 2
Fore
SplineSet
85 0 m 1,0,-1
 85 690 l 1,1,-1
 350 690 l 2,2,3
 620 690 620 690 620 420 c 2,4,-1
 620 270 l 2,5,6
 620 0 620 0 350 0 c 2,7,-1
 85 0 l 1,0,-1
207 110 m 1,8,-1
 357 110 l 2,9,10
 498 110 498 110 498 251 c 2,11,-1
 498 439 l 2,12,13
 498 580 498 580 357 580 c 2,14,-1
 207 580 l 1,15,-1
 207 110 l 1,8,-1
EndSplineSet
EndChar

StartChar: E
Encoding: 39 69 39
Width: 599
Flags: W
LayerCount: 2
Fore
SplineSet
85 0 m 1,0,-1
 85 690 l 1,1,-1
 549 690 l 1,2,-1
 549 580 l 1,3,-1
 207 580 l 1,4,-1
 207 413 l 1,5,-1
 519 413 l 1,6,-1
 519 303 l 1,7,-1
 207 303 l 1,8,-1
 207 110 l 1,9,-1
 549 110 l 1,10,-1
 549 0 l 1,11,-1
 85 0 l 1,0,-1
EndSplineSet
EndChar

StartChar: F
Encoding: 40 70 40
Width: 579
Flags: W
LayerCount: 2
Fore
SplineSet
85 0 m 1,0,-1
 85 690 l 1,1,-1
 549 690 l 1,2,-1
 549 580 l 1,3,-1
 207 580 l 1,4,-1
 207 383 l 1,5,-1
 519 383 l 1,6,-1
 519 273 l 1,7,-1
 207 273 l 1,8,-1
 207 0 l 1,9,-1
 85 0 l 1,0,-1
EndSplineSet
EndChar

StartChar: G
Encoding: 41 71 41
Width: 675
Flags: W
LayerCount: 2
Fore
SplineSet
75 162 m 2,0,-1
 75 528 l 2,1,2
 75 690 75 690 237 690 c 2,3,-1
 531 690 l 1,4,-1
 590 644 l 1,5,-1
 590 580 l 1,6,-1
 241 580 l 2,7,8
 197 580 197 580 197 536 c 2,9,-1
 197 154 l 2,10,11
 197 110 197 110 241 110 c 2,12,-1
 488 110 l 1,13,-1
 488 303 l 1,14,-1
 342 303 l 1,15,-1
 342 413 l 1,16,-1
 610 413 l 1,17,-1
 610 0 l 1,18,-1
 237 0 l 2,19,20
 75 0 75 0 75 162 c 2,0,-1
EndSplineSet
EndChar

StartChar: H
Encoding: 42 72 42
Width: 705
Flags: W
LayerCount: 2
Fore
SplineSet
85 0 m 1,0,-1
 85 690 l 1,1,-1
 207 690 l 1,2,-1
 207 413 l 1,3,-1
 498 413 l 1,4,-1
 498 690 l 1,5,-1
 620 690 l 1,6,-1
 620 0 l 1,7,-1
 498 0 l 1,8,-1
 498 303 l 1,9,-1
 207 303 l 1,10,-1
 207 0 l 1,11,-1
 85 0 l 1,0,-1
EndSplineSet
EndChar

StartChar: I
Encoding: 43 73 43
Width: 292
Flags: W
LayerCount: 2
Fore
SplineSet
85 0 m 1,0,-1
 85 690 l 1,1,-1
 207 690 l 1,2,-1
 207 0 l 1,3,-1
 85 0 l 1,0,-1
EndSplineSet
EndChar

StartChar: J
Encoding: 44 74 44
Width: 609
Flags: W
LayerCount: 2
Fore
SplineSet
55 162 m 2,0,-1
 55 285 l 1,1,-1
 177 285 l 1,2,-1
 177 154 l 2,3,4
 177 110 177 110 221 110 c 2,5,-1
 364 110 l 2,6,7
 408 110 408 110 408 154 c 2,8,-1
 408 580 l 1,9,-1
 206 580 l 1,10,-1
 206 690 l 1,11,-1
 530 690 l 1,12,-1
 530 162 l 2,13,14
 530 0 530 0 368 0 c 2,15,-1
 217 0 l 2,16,17
 55 0 55 0 55 162 c 2,0,-1
EndSplineSet
EndChar

StartChar: K
Encoding: 45 75 45
Width: 656
Flags: W
LayerCount: 2
Fore
SplineSet
85 0 m 1,0,-1
 85 690 l 1,1,-1
 207 690 l 1,2,-1
 207 387 l 1,3,-1
 478 690 l 1,4,-1
 591 690 l 1,5,-1
 603 665 l 1,6,-1
 371 406 l 1,7,-1
 628 25 l 1,8,-1
 616 0 l 1,9,-1
 504 0 l 1,10,-1
 292 318 l 1,11,-1
 207 225 l 1,12,-1
 207 0 l 1,13,-1
 85 0 l 1,0,-1
EndSplineSet
EndChar

StartChar: L
Encoding: 46 76 46
Width: 543
Flags: W
LayerCount: 2
Fore
SplineSet
85 0 m 1,0,-1
 85 690 l 1,1,-1
 207 690 l 1,2,-1
 207 110 l 1,3,-1
 519 110 l 1,4,-1
 519 0 l 1,5,-1
 85 0 l 1,0,-1
EndSplineSet
EndChar

StartChar: M
Encoding: 47 77 47
Width: 888
Flags: W
LayerCount: 2
Fore
SplineSet
85 0 m 1,0,-1
 85 690 l 1,1,-1
 234 690 l 1,2,-1
 444 243 l 1,3,-1
 653 690 l 1,4,-1
 803 690 l 1,5,-1
 803 0 l 1,6,-1
 681 0 l 1,7,-1
 681 483 l 1,8,-1
 498 94 l 1,9,-1
 389 94 l 1,10,-1
 207 483 l 1,11,-1
 207 0 l 1,12,-1
 85 0 l 1,0,-1
EndSplineSet
EndChar

StartChar: N
Encoding: 48 78 48
Width: 731
Flags: W
LayerCount: 2
Fore
SplineSet
85 0 m 1,0,-1
 85 690 l 1,1,-1
 218 690 l 1,2,-1
 525 197 l 1,3,-1
 525 690 l 1,4,-1
 646 690 l 1,5,-1
 646 0 l 1,6,-1
 514 0 l 1,7,-1
 207 493 l 1,8,-1
 207 0 l 1,9,-1
 85 0 l 1,0,-1
EndSplineSet
EndChar

StartChar: O
Encoding: 49 79 49
Width: 705
Flags: W
LayerCount: 2
Fore
SplineSet
75 162 m 2,0,-1
 75 528 l 2,1,2
 75 690 75 690 237 690 c 2,3,-1
 468 690 l 2,4,5
 630 690 630 690 630 528 c 2,6,-1
 630 162 l 2,7,8
 630 0 630 0 468 0 c 2,9,-1
 237 0 l 2,10,11
 75 0 75 0 75 162 c 2,0,-1
197 154 m 2,12,13
 197 110 197 110 241 110 c 2,14,-1
 464 110 l 2,15,16
 508 110 508 110 508 154 c 2,17,-1
 508 536 l 2,18,19
 508 580 508 580 464 580 c 2,20,-1
 241 580 l 2,21,22
 197 580 197 580 197 536 c 2,23,-1
 197 154 l 2,12,13
EndSplineSet
EndChar

StartChar: P
Encoding: 50 80 50
Width: 635
Flags: W
LayerCount: 2
Fore
SplineSet
85 0 m 1,0,-1
 85 690 l 1,1,-1
 418 690 l 2,2,3
 580 690 580 690 580 528 c 2,4,-1
 580 395 l 2,5,6
 580 233 580 233 418 233 c 2,7,-1
 207 233 l 1,8,-1
 207 0 l 1,9,-1
 85 0 l 1,0,-1
207 343 m 1,10,-1
 414 343 l 2,11,12
 458 343 458 343 458 387 c 2,13,-1
 458 536 l 2,14,15
 458 580 458 580 414 580 c 2,16,-1
 207 580 l 1,17,-1
 207 343 l 1,10,-1
EndSplineSet
EndChar

StartChar: Q
Encoding: 51 81 51
Width: 705
Flags: W
LayerCount: 2
Fore
SplineSet
75 162 m 2,0,-1
 75 528 l 2,1,2
 75 690 75 690 237 690 c 2,3,-1
 468 690 l 2,4,5
 630 690 630 690 630 528 c 2,6,-1
 630 162 l 2,7,8
 630 24 630 24 512 4 c 1,9,-1
 577 -124 l 1,10,-1
 562 -150 l 1,11,-1
 457 -150 l 1,12,-1
 381 0 l 1,13,-1
 237 0 l 2,14,15
 75 0 75 0 75 162 c 2,0,-1
197 154 m 2,16,17
 197 110 197 110 241 110 c 2,18,-1
 464 110 l 2,19,20
 508 110 508 110 508 154 c 2,21,-1
 508 536 l 2,22,23
 508 580 508 580 464 580 c 2,24,-1
 241 580 l 2,25,26
 197 580 197 580 197 536 c 2,27,-1
 197 154 l 2,16,17
EndSplineSet
EndChar

StartChar: R
Encoding: 52 82 52
Width: 645
Flags: W
LayerCount: 2
Fore
SplineSet
85 0 m 1,0,-1
 85 690 l 1,1,-1
 418 690 l 2,2,3
 580 690 580 690 580 528 c 2,4,-1
 580 415 l 2,5,6
 580 288 580 288 480 261 c 1,7,-1
 600 26 l 1,8,-1
 585 0 l 1,9,-1
 481 0 l 1,10,-1
 353 253 l 1,11,-1
 207 253 l 1,12,-1
 207 0 l 1,13,-1
 85 0 l 1,0,-1
207 363 m 1,14,-1
 414 363 l 2,15,16
 458 363 458 363 458 407 c 2,17,-1
 458 536 l 2,18,19
 458 580 458 580 414 580 c 2,20,-1
 207 580 l 1,21,-1
 207 363 l 1,14,-1
EndSplineSet
EndChar

StartChar: S
Encoding: 53 83 53
Width: 585
Flags: W
LayerCount: 2
Fore
SplineSet
55 46 m 1,0,-1
 55 110 l 1,1,-1
 364 110 l 2,2,3
 408 110 408 110 408 154 c 2,4,-1
 408 230 l 2,5,6
 408 269 408 269 374 276 c 2,7,-1
 171 316 l 2,8,9
 55 340 55 340 55 473 c 2,10,-1
 55 528 l 2,11,12
 55 690 55 690 217 690 c 2,13,-1
 451 690 l 1,14,-1
 510 644 l 1,15,-1
 510 580 l 1,16,-1
 221 580 l 2,17,18
 177 580 177 580 177 536 c 2,19,-1
 177 470 l 2,20,21
 177 431 177 431 211 424 c 2,22,-1
 414 384 l 2,23,24
 530 360 530 360 530 228 c 2,25,-1
 530 162 l 2,26,27
 530 0 530 0 368 0 c 2,28,-1
 114 0 l 1,29,-1
 55 46 l 1,0,-1
EndSplineSet
EndChar

StartChar: T
Encoding: 54 84 54
Width: 605
Flags: W
LayerCount: 2
Fore
SplineSet
24 580 m 1,0,-1
 24 690 l 1,1,-1
 581 690 l 1,2,-1
 581 580 l 1,3,-1
 363 580 l 1,4,-1
 363 0 l 1,5,-1
 241 0 l 1,6,-1
 241 580 l 1,7,-1
 24 580 l 1,0,-1
EndSplineSet
EndChar

StartChar: U
Encoding: 55 85 55
Width: 693
Flags: W
LayerCount: 2
Fore
SplineSet
79 162 m 2,0,-1
 79 690 l 1,1,-1
 201 690 l 1,2,-1
 201 154 l 2,3,4
 201 110 201 110 245 110 c 2,5,-1
 448 110 l 2,6,7
 492 110 492 110 492 154 c 2,8,-1
 492 690 l 1,9,-1
 614 690 l 1,10,-1
 614 162 l 2,11,12
 614 0 614 0 452 0 c 2,13,-1
 241 0 l 2,14,15
 79 0 79 0 79 162 c 2,0,-1
EndSplineSet
EndChar

StartChar: V
Encoding: 56 86 56
Width: 643
Flags: W
LayerCount: 2
Fore
SplineSet
19 666 m 1,0,-1
 35 690 l 1,1,-1
 140 690 l 1,2,-1
 312 110 l 1,3,-1
 331 110 l 1,4,-1
 503 690 l 1,5,-1
 608 690 l 1,6,-1
 624 666 l 1,7,-1
 420 0 l 1,8,-1
 223 0 l 1,9,-1
 19 666 l 1,0,-1
EndSplineSet
EndChar

StartChar: W
Encoding: 57 87 57
Width: 943
Flags: W
LayerCount: 2
Fore
SplineSet
29 666 m 1,0,-1
 46 690 l 1,1,-1
 146 690 l 1,2,-1
 268 110 l 1,3,-1
 281 110 l 1,4,-1
 412 620 l 1,5,-1
 531 620 l 1,6,-1
 662 110 l 1,7,-1
 675 110 l 1,8,-1
 797 690 l 1,9,-1
 897 690 l 1,10,-1
 914 666 l 1,11,-1
 770 0 l 1,12,-1
 574 0 l 1,13,-1
 471 407 l 1,14,-1
 369 0 l 1,15,-1
 173 0 l 1,16,-1
 29 666 l 1,0,-1
EndSplineSet
EndChar

StartChar: X
Encoding: 58 88 58
Width: 633
Flags: W
LayerCount: 2
Fore
SplineSet
29 25 m 1,0,-1
 249 355 l 1,1,-1
 42 665 l 1,2,-1
 54 690 l 1,3,-1
 160 690 l 1,4,-1
 316 452 l 1,5,-1
 472 690 l 1,6,-1
 579 690 l 1,7,-1
 591 665 l 1,8,-1
 384 355 l 1,9,-1
 604 25 l 1,10,-1
 592 0 l 1,11,-1
 485 0 l 1,12,-1
 316 258 l 1,13,-1
 147 0 l 1,14,-1
 41 0 l 1,15,-1
 29 25 l 1,0,-1
EndSplineSet
EndChar

StartChar: Y
Encoding: 59 89 59
Width: 603
Flags: W
LayerCount: 2
Fore
SplineSet
19 666 m 1,0,-1
 34 690 l 1,1,-1
 137 690 l 1,2,-1
 301 376 l 1,3,-1
 465 690 l 1,4,-1
 569 690 l 1,5,-1
 584 666 l 1,6,-1
 362 248 l 1,7,-1
 362 0 l 1,8,-1
 240 0 l 1,9,-1
 240 248 l 1,10,-1
 19 666 l 1,0,-1
EndSplineSet
EndChar

StartChar: Z
Encoding: 60 90 60
Width: 605
Flags: W
LayerCount: 2
Fore
SplineSet
45 0 m 1,0,-1
 45 95 l 1,1,-1
 397 580 l 1,2,-1
 55 580 l 1,3,-1
 55 690 l 1,4,-1
 550 690 l 1,5,-1
 550 595 l 1,6,-1
 198 110 l 1,7,-1
 560 110 l 1,8,-1
 560 0 l 1,9,-1
 45 0 l 1,0,-1
EndSplineSet
EndChar

StartChar: bracketleft
Encoding: 61 91 61
Width: 366
Flags: W
LayerCount: 2
Fore
SplineSet
85 -180 m 1,0,-1
 85 760 l 1,1,-1
 336 760 l 1,2,-1
 336 658 l 1,3,-1
 202 658 l 1,4,-1
 202 -78 l 1,5,-1
 336 -78 l 1,6,-1
 336 -180 l 1,7,-1
 85 -180 l 1,0,-1
EndSplineSet
EndChar

StartChar: backslash
Encoding: 62 92 62
Width: 419
Flags: W
LayerCount: 2
Fore
SplineSet
20 709 m 1,0,-1
 119 745 l 1,1,-1
 399 -19 l 1,2,-1
 300 -55 l 1,3,-1
 20 709 l 1,0,-1
EndSplineSet
EndChar

StartChar: bracketright
Encoding: 63 93 63
Width: 366
Flags: W
LayerCount: 2
Fore
SplineSet
30 -78 m 1,0,-1
 165 -78 l 1,1,-1
 165 658 l 1,2,-1
 30 658 l 1,3,-1
 30 760 l 1,4,-1
 282 760 l 1,5,-1
 282 -180 l 1,6,-1
 30 -180 l 1,7,-1
 30 -78 l 1,0,-1
EndSplineSet
EndChar

StartChar: asciicircum
Encoding: 64 94 64
Width: 555
Flags: W
LayerCount: 2
Fore
SplineSet
35 352 m 1,0,-1
 222 690 l 1,1,-1
 334 690 l 1,2,-1
 520 352 l 1,3,-1
 431 302 l 1,4,-1
 278 583 l 1,5,-1
 124 302 l 1,6,-1
 35 352 l 1,0,-1
EndSplineSet
EndChar

StartChar: underscore
Encoding: 65 95 65
Width: 580
Flags: W
LayerCount: 2
Fore
SplineSet
40 -100 m 1,0,-1
 540 -100 l 1,1,-1
 540 -200 l 1,2,-1
 40 -200 l 1,3,-1
 40 -100 l 1,0,-1
EndSplineSet
EndChar

StartChar: a
Encoding: 67 97 67
Width: 547
Flags: W
LayerCount: 2
Fore
SplineSet
205 0 m 2,0,1
 47 0 47 0 47 156 c 128,-1,2
 47 312 47 312 205 312 c 2,3,-1
 360 312 l 1,4,-1
 360 377 l 2,5,6
 360 424 360 424 313 424 c 2,7,-1
 101 424 l 1,8,-1
 101 486 l 1,9,-1
 153 525 l 1,10,-1
 319 525 l 2,11,12
 476 525 476 525 476 367 c 2,13,-1
 476 0 l 1,14,-1
 205 0 l 2,0,1
164 148 m 2,15,16
 164 102 164 102 210 102 c 2,17,-1
 360 102 l 1,18,-1
 360 218 l 1,19,-1
 210 218 l 2,20,21
 164 218 164 218 164 172 c 2,22,-1
 164 148 l 2,15,16
EndSplineSet
EndChar

StartChar: b
Encoding: 68 98 68
Width: 587
Flags: W
LayerCount: 2
Fore
SplineSet
75 0 m 1,0,-1
 75 740 l 1,1,-1
 192 740 l 1,2,-1
 192 525 l 1,3,-1
 363 525 l 2,4,5
 520 525 520 525 520 367 c 2,6,-1
 520 158 l 2,7,8
 520 0 520 0 363 0 c 2,9,-1
 75 0 l 1,0,-1
192 102 m 1,10,-1
 357 102 l 2,11,12
 404 102 404 102 404 148 c 2,13,-1
 404 377 l 2,14,15
 404 424 404 424 357 424 c 2,16,-1
 192 424 l 1,17,-1
 192 102 l 1,10,-1
EndSplineSet
EndChar

StartChar: c
Encoding: 69 99 69
Width: 513
Flags: W
LayerCount: 2
Fore
SplineSet
67 158 m 2,0,-1
 67 367 l 2,1,2
 67 525 67 525 225 525 c 2,3,-1
 414 525 l 1,4,-1
 467 486 l 1,5,-1
 467 424 l 1,6,-1
 230 424 l 2,7,8
 184 424 184 424 184 377 c 2,9,-1
 184 148 l 2,10,11
 184 102 184 102 230 102 c 2,12,-1
 467 102 l 1,13,-1
 467 39 l 1,14,-1
 414 0 l 1,15,-1
 225 0 l 2,16,17
 67 0 67 0 67 158 c 2,0,-1
EndSplineSet
EndChar

StartChar: d
Encoding: 70 100 70
Width: 587
Flags: W
LayerCount: 2
Fore
SplineSet
67 158 m 2,0,-1
 67 367 l 2,1,2
 67 525 67 525 225 525 c 2,3,-1
 396 525 l 1,4,-1
 396 740 l 1,5,-1
 512 740 l 1,6,-1
 512 0 l 1,7,-1
 225 0 l 2,8,9
 67 0 67 0 67 158 c 2,0,-1
184 148 m 2,10,11
 184 102 184 102 230 102 c 2,12,-1
 396 102 l 1,13,-1
 396 424 l 1,14,-1
 230 424 l 2,15,16
 184 424 184 424 184 377 c 2,17,-1
 184 148 l 2,10,11
EndSplineSet
EndChar

StartChar: e
Encoding: 71 101 71
Width: 579
Flags: W
LayerCount: 2
Fore
SplineSet
67 158 m 2,0,-1
 67 367 l 2,1,2
 67 525 67 525 225 525 c 2,3,-1
 355 525 l 2,4,5
 512 525 512 525 512 367 c 2,6,-1
 512 217 l 1,7,-1
 184 217 l 1,8,-1
 184 148 l 2,9,10
 184 102 184 102 230 102 c 2,11,-1
 492 102 l 1,12,-1
 492 39 l 1,13,-1
 439 0 l 1,14,-1
 225 0 l 2,15,16
 67 0 67 0 67 158 c 2,0,-1
184 311 m 1,17,-1
 396 311 l 1,18,-1
 396 377 l 2,19,20
 396 424 396 424 349 424 c 2,21,-1
 230 424 l 2,22,23
 184 424 184 424 184 377 c 2,24,-1
 184 311 l 1,17,-1
EndSplineSet
EndChar

StartChar: f
Encoding: 72 102 72
Width: 400
Flags: W
LayerCount: 2
Fore
SplineSet
75 0 m 1,0,-1
 75 582 l 2,1,2
 75 740 75 740 233 740 c 2,3,-1
 328 740 l 1,4,-1
 380 701 l 1,5,-1
 380 638 l 1,6,-1
 238 638 l 2,7,8
 192 638 192 638 192 592 c 2,9,-1
 192 525 l 1,10,-1
 370 525 l 1,11,-1
 370 424 l 1,12,-1
 192 424 l 1,13,-1
 192 0 l 1,14,-1
 75 0 l 1,0,-1
EndSplineSet
EndChar

StartChar: g
Encoding: 73 103 73
Width: 582
Flags: W
LayerCount: 2
Fore
SplineSet
64 158 m 2,0,-1
 64 367 l 2,1,2
 64 525 64 525 222 525 c 2,3,-1
 510 525 l 1,4,-1
 510 -42 l 2,5,6
 510 -200 510 -200 352 -200 c 2,7,-1
 160 -200 l 1,8,-1
 108 -161 l 1,9,-1
 108 -98 l 1,10,-1
 347 -98 l 2,11,12
 393 -98 393 -98 393 -52 c 2,13,-1
 393 0 l 1,14,-1
 222 0 l 2,15,16
 64 0 64 0 64 158 c 2,0,-1
181 148 m 2,17,18
 181 102 181 102 227 102 c 2,19,-1
 393 102 l 1,20,-1
 393 424 l 1,21,-1
 227 424 l 2,22,23
 181 424 181 424 181 377 c 2,24,-1
 181 148 l 2,17,18
EndSplineSet
EndChar

StartChar: h
Encoding: 74 104 74
Width: 591
Flags: W
LayerCount: 2
Fore
SplineSet
75 0 m 1,0,-1
 75 740 l 1,1,-1
 192 740 l 1,2,-1
 192 525 l 1,3,-1
 363 525 l 2,4,5
 520 525 520 525 520 367 c 2,6,-1
 520 0 l 1,7,-1
 404 0 l 1,8,-1
 404 377 l 2,9,10
 404 424 404 424 357 424 c 2,11,-1
 192 424 l 1,12,-1
 192 0 l 1,13,-1
 75 0 l 1,0,-1
EndSplineSet
EndChar

StartChar: i
Encoding: 75 105 75
Width: 266
Flags: W
LayerCount: 2
Fore
SplineSet
73 614 m 1,0,-1
 73 732 l 1,1,-1
 194 732 l 1,2,-1
 194 614 l 1,3,-1
 73 614 l 1,0,-1
75 0 m 1,4,-1
 75 525 l 1,5,-1
 192 525 l 1,6,-1
 192 0 l 1,7,-1
 75 0 l 1,4,-1
EndSplineSet
EndChar

StartChar: j
Encoding: 76 106 76
Width: 266
Flags: W
LayerCount: 2
Fore
SplineSet
-9 -110 m 1,0,1
 75 -104 75 -104 75 -22 c 2,2,-1
 75 525 l 1,3,-1
 192 525 l 1,4,-1
 192 -8 l 2,5,6
 192 -209 192 -209 -9 -209 c 1,7,-1
 -9 -110 l 1,0,1
73 614 m 1,8,-1
 73 732 l 1,9,-1
 194 732 l 1,10,-1
 194 614 l 1,11,-1
 73 614 l 1,8,-1
EndSplineSet
EndChar

StartChar: k
Encoding: 77 107 77
Width: 561
Flags: W
LayerCount: 2
Fore
SplineSet
75 0 m 1,0,-1
 75 740 l 1,1,-1
 192 740 l 1,2,-1
 192 302 l 1,3,-1
 396 525 l 1,4,-1
 510 525 l 1,5,-1
 520 505 l 1,6,-1
 336 306 l 1,7,-1
 534 20 l 1,8,-1
 524 0 l 1,9,-1
 411 0 l 1,10,-1
 259 222 l 1,11,-1
 192 149 l 1,12,-1
 192 0 l 1,13,-1
 75 0 l 1,0,-1
EndSplineSet
EndChar

StartChar: l
Encoding: 78 108 78
Width: 292
Flags: W
LayerCount: 2
Fore
SplineSet
71 174 m 2,0,-1
 71 740 l 1,1,-1
 188 740 l 1,2,-1
 188 162 l 2,3,4
 188 98 188 98 254 92 c 1,5,-1
 254 -9 l 1,6,7
 71 -9 71 -9 71 174 c 2,0,-1
EndSplineSet
EndChar

StartChar: m
Encoding: 79 109 79
Width: 901
Flags: W
LayerCount: 2
Fore
SplineSet
75 0 m 1,0,-1
 75 525 l 1,1,-1
 673 525 l 2,2,3
 830 525 830 525 830 367 c 2,4,-1
 830 0 l 1,5,-1
 714 0 l 1,6,-1
 714 377 l 2,7,8
 714 424 714 424 667 424 c 2,9,-1
 511 424 l 1,10,-1
 511 0 l 1,11,-1
 394 0 l 1,12,-1
 394 424 l 1,13,-1
 192 424 l 1,14,-1
 192 0 l 1,15,-1
 75 0 l 1,0,-1
EndSplineSet
EndChar

StartChar: n
Encoding: 80 110 80
Width: 591
Flags: W
LayerCount: 2
Fore
SplineSet
75 0 m 1,0,-1
 75 525 l 1,1,-1
 363 525 l 2,2,3
 520 525 520 525 520 367 c 2,4,-1
 520 0 l 1,5,-1
 404 0 l 1,6,-1
 404 377 l 2,7,8
 404 424 404 424 357 424 c 2,9,-1
 192 424 l 1,10,-1
 192 0 l 1,11,-1
 75 0 l 1,0,-1
EndSplineSet
EndChar

StartChar: o
Encoding: 81 111 81
Width: 589
Flags: W
LayerCount: 2
Fore
SplineSet
67 158 m 2,0,-1
 67 367 l 2,1,2
 67 525 67 525 225 525 c 2,3,-1
 365 525 l 2,4,5
 522 525 522 525 522 367 c 2,6,-1
 522 158 l 2,7,8
 522 0 522 0 365 0 c 2,9,-1
 225 0 l 2,10,11
 67 0 67 0 67 158 c 2,0,-1
184 148 m 2,12,13
 184 102 184 102 230 102 c 2,14,-1
 359 102 l 2,15,16
 406 102 406 102 406 148 c 2,17,-1
 406 377 l 2,18,19
 406 424 406 424 359 424 c 2,20,-1
 230 424 l 2,21,22
 184 424 184 424 184 377 c 2,23,-1
 184 148 l 2,12,13
EndSplineSet
EndChar

StartChar: p
Encoding: 82 112 82
Width: 587
Flags: W
LayerCount: 2
Fore
SplineSet
75 -200 m 1,0,-1
 75 525 l 1,1,-1
 363 525 l 2,2,3
 520 525 520 525 520 367 c 2,4,-1
 520 158 l 2,5,6
 520 0 520 0 363 0 c 2,7,-1
 192 0 l 1,8,-1
 192 -200 l 1,9,-1
 75 -200 l 1,0,-1
192 102 m 1,10,-1
 357 102 l 2,11,12
 404 102 404 102 404 148 c 2,13,-1
 404 377 l 2,14,15
 404 424 404 424 357 424 c 2,16,-1
 192 424 l 1,17,-1
 192 102 l 1,10,-1
EndSplineSet
EndChar

StartChar: q
Encoding: 83 113 83
Width: 587
Flags: W
LayerCount: 2
Fore
SplineSet
67 158 m 2,0,-1
 67 367 l 2,1,2
 67 525 67 525 225 525 c 2,3,-1
 512 525 l 1,4,-1
 512 -200 l 1,5,-1
 396 -200 l 1,6,-1
 396 0 l 1,7,-1
 225 0 l 2,8,9
 67 0 67 0 67 158 c 2,0,-1
184 148 m 2,10,11
 184 102 184 102 230 102 c 2,12,-1
 396 102 l 1,13,-1
 396 424 l 1,14,-1
 230 424 l 2,15,16
 184 424 184 424 184 377 c 2,17,-1
 184 148 l 2,10,11
EndSplineSet
EndChar

StartChar: r
Encoding: 84 114 84
Width: 392
Flags: W
LayerCount: 2
Fore
SplineSet
71 0 m 1,0,-1
 71 460 l 1,1,2
 107 525 107 525 209 525 c 2,3,-1
 314 525 l 1,4,-1
 366 486 l 1,5,-1
 366 424 l 1,6,-1
 229 424 l 2,7,8
 200 424 200 424 188 409 c 1,9,-1
 188 0 l 1,10,-1
 71 0 l 1,0,-1
EndSplineSet
EndChar

StartChar: s
Encoding: 85 115 85
Width: 505
Flags: W
LayerCount: 2
Fore
SplineSet
56 39 m 1,0,-1
 56 102 l 1,1,-1
 286 102 l 2,2,3
 334 102 334 102 334 151 c 256,4,5
 334 202 334 202 292 209 c 2,6,-1
 180 227 l 2,7,8
 56 248 56 248 56 368 c 256,9,10
 56 525 56 525 214 525 c 2,11,-1
 373 525 l 1,12,-1
 425 486 l 1,13,-1
 425 424 l 1,14,-1
 219 424 l 2,15,16
 172 424 172 424 172 374 c 256,17,18
 172 327 172 327 213 320 c 2,19,-1
 326 301 l 2,20,21
 449 281 449 281 449 157 c 256,22,23
 449 0 449 0 292 0 c 2,24,-1
 109 0 l 1,25,-1
 56 39 l 1,0,-1
EndSplineSet
EndChar

StartChar: t
Encoding: 86 116 86
Width: 412
Flags: W
LayerCount: 2
Fore
SplineSet
71 158 m 2,0,-1
 71 690 l 1,1,-1
 188 690 l 1,2,-1
 188 525 l 1,3,-1
 366 525 l 1,4,-1
 366 424 l 1,5,-1
 188 424 l 1,6,-1
 188 148 l 2,7,8
 188 102 188 102 234 102 c 2,9,-1
 376 102 l 1,10,-1
 376 39 l 1,11,-1
 324 0 l 1,12,-1
 229 0 l 2,13,14
 71 0 71 0 71 158 c 2,0,-1
EndSplineSet
EndChar

StartChar: u
Encoding: 87 117 87
Width: 591
Flags: W
LayerCount: 2
Fore
SplineSet
71 158 m 2,0,-1
 71 525 l 1,1,-1
 188 525 l 1,2,-1
 188 148 l 2,3,4
 188 102 188 102 234 102 c 2,5,-1
 400 102 l 1,6,-1
 400 525 l 1,7,-1
 516 525 l 1,8,-1
 516 0 l 1,9,-1
 229 0 l 2,10,11
 71 0 71 0 71 158 c 2,0,-1
EndSplineSet
EndChar

StartChar: v
Encoding: 88 118 88
Width: 543
Flags: W
LayerCount: 2
Fore
SplineSet
19 507 m 1,0,-1
 31 525 l 1,1,-1
 131 525 l 1,2,-1
 264 102 l 1,3,-1
 278 102 l 1,4,-1
 411 525 l 1,5,-1
 512 525 l 1,6,-1
 524 507 l 1,7,-1
 359 0 l 1,8,-1
 184 0 l 1,9,-1
 19 507 l 1,0,-1
EndSplineSet
EndChar

StartChar: w
Encoding: 89 119 89
Width: 815
Flags: W
LayerCount: 2
Fore
SplineSet
23 507 m 1,0,-1
 36 525 l 1,1,-1
 134 525 l 1,2,-1
 223 102 l 1,3,-1
 233 102 l 1,4,-1
 340 525 l 1,5,-1
 475 525 l 1,6,-1
 582 102 l 1,7,-1
 592 102 l 1,8,-1
 681 525 l 1,9,-1
 779 525 l 1,10,-1
 792 507 l 1,11,-1
 680 0 l 1,12,-1
 503 0 l 1,13,-1
 407 394 l 1,14,-1
 312 0 l 1,15,-1
 135 0 l 1,16,-1
 23 507 l 1,0,-1
EndSplineSet
EndChar

StartChar: x
Encoding: 90 120 90
Width: 543
Flags: W
LayerCount: 2
Fore
SplineSet
29 20 m 1,0,-1
 206 266 l 1,1,-1
 34 505 l 1,2,-1
 44 525 l 1,3,-1
 151 525 l 1,4,-1
 271 353 l 1,5,-1
 391 525 l 1,6,-1
 499 525 l 1,7,-1
 508 505 l 1,8,-1
 337 266 l 1,9,-1
 514 20 l 1,10,-1
 504 0 l 1,11,-1
 397 0 l 1,12,-1
 271 179 l 1,13,-1
 146 0 l 1,14,-1
 38 0 l 1,15,-1
 29 20 l 1,0,-1
EndSplineSet
EndChar

StartChar: y
Encoding: 91 121 91
Width: 543
Flags: W
LayerCount: 2
Fore
SplineSet
19 507 m 1,0,-1
 31 525 l 1,1,-1
 131 525 l 1,2,-1
 264 102 l 1,3,-1
 278 102 l 1,4,-1
 411 525 l 1,5,-1
 512 525 l 1,6,-1
 524 507 l 1,7,-1
 294 -200 l 1,8,-1
 194 -200 l 1,9,-1
 182 -182 l 1,10,-1
 244 0 l 1,11,-1
 184 0 l 1,12,-1
 19 507 l 1,0,-1
EndSplineSet
EndChar

StartChar: z
Encoding: 92 122 92
Width: 515
Flags: W
LayerCount: 2
Fore
SplineSet
45 0 m 1,0,-1
 45 88 l 1,1,-1
 311 424 l 1,2,-1
 55 424 l 1,3,-1
 55 525 l 1,4,-1
 460 525 l 1,5,-1
 460 437 l 1,6,-1
 194 102 l 1,7,-1
 470 102 l 1,8,-1
 470 0 l 1,9,-1
 45 0 l 1,0,-1
EndSplineSet
EndChar

StartChar: braceleft
Encoding: 93 123 93
Width: 405
Flags: W
LayerCount: 2
Fore
SplineSet
50 258 m 1,0,-1
 50 316 l 1,1,-1
 134 399 l 1,2,-1
 134 602 l 2,3,4
 134 760 134 760 291 760 c 2,5,-1
 375 760 l 1,6,-1
 375 658 l 1,7,-1
 296 658 l 2,8,9
 250 658 250 658 250 612 c 2,10,-1
 250 372 l 1,11,-1
 165 287 l 1,12,-1
 250 202 l 1,13,-1
 250 -32 l 2,14,15
 250 -78 250 -78 296 -78 c 2,16,-1
 375 -78 l 1,17,-1
 375 -180 l 1,18,-1
 291 -180 l 2,19,20
 134 -180 134 -180 134 -22 c 2,21,-1
 134 174 l 1,22,-1
 50 258 l 1,0,-1
EndSplineSet
EndChar

StartChar: bar
Encoding: 94 124 94
Width: 298
Flags: W
LayerCount: 2
Fore
SplineSet
96 -200 m 1,0,-1
 96 740 l 1,1,-1
 202 740 l 1,2,-1
 202 -200 l 1,3,-1
 96 -200 l 1,0,-1
EndSplineSet
EndChar

StartChar: braceright
Encoding: 95 125 95
Width: 405
Flags: W
LayerCount: 2
Fore
SplineSet
30 -78 m 1,0,-1
 109 -78 l 2,1,2
 155 -78 155 -78 155 -32 c 2,3,-1
 155 202 l 1,4,-1
 240 287 l 1,5,-1
 155 372 l 1,6,-1
 155 612 l 2,7,8
 155 658 155 658 109 658 c 2,9,-1
 30 658 l 1,10,-1
 30 760 l 1,11,-1
 114 760 l 2,12,13
 272 760 272 760 272 602 c 2,14,-1
 272 399 l 1,15,-1
 355 316 l 1,16,-1
 355 258 l 1,17,-1
 272 174 l 1,18,-1
 272 -22 l 2,19,20
 272 -180 272 -180 114 -180 c 2,21,-1
 30 -180 l 1,22,-1
 30 -78 l 1,0,-1
EndSplineSet
EndChar

StartChar: asciitilde
Encoding: 96 126 96
Width: 578
Flags: W
LayerCount: 2
Fore
SplineSet
38 316 m 1,0,-1
 130 407 l 2,1,2
 163 441 163 441 209 441 c 128,-1,3
 255 441 255 441 288 407 c 2,4,-1
 349 346 l 2,5,6
 359 336 359 336 369 336 c 128,-1,7
 379 336 379 336 389 346 c 2,8,-1
 468 426 l 1,9,-1
 540 354 l 1,10,-1
 448 263 l 2,11,12
 415 229 415 229 369 229 c 128,-1,13
 323 229 323 229 290 263 c 2,14,-1
 229 324 l 2,15,16
 219 334 219 334 209 334 c 128,-1,17
 199 334 199 334 189 324 c 2,18,-1
 110 244 l 1,19,-1
 38 316 l 1,0,-1
EndSplineSet
EndChar

StartChar: exclamdown
Encoding: 98 161 98
Width: 271
Flags: W
LayerCount: 2
Fore
SplineSet
70 394 m 1,0,-1
 70 525 l 1,1,-1
 201 525 l 1,2,-1
 201 394 l 1,3,-1
 70 394 l 1,0,-1
75 -165 m 1,4,-1
 75 307 l 1,5,-1
 197 307 l 1,6,-1
 197 -165 l 1,7,-1
 75 -165 l 1,4,-1
EndSplineSet
EndChar

StartChar: cent
Encoding: 99 162 99
Width: 578
Flags: W
LayerCount: 2
Fore
SplineSet
86 158 m 2,0,-1
 86 367 l 2,1,2
 86 525 86 525 244 525 c 2,3,-1
 268 525 l 1,4,-1
 268 635 l 1,5,-1
 364 635 l 1,6,-1
 364 525 l 1,7,-1
 434 525 l 1,8,-1
 486 486 l 1,9,-1
 486 424 l 1,10,-1
 249 424 l 2,11,12
 203 424 203 424 203 377 c 2,13,-1
 203 148 l 2,14,15
 203 102 203 102 249 102 c 2,16,-1
 486 102 l 1,17,-1
 486 39 l 1,18,-1
 434 0 l 1,19,-1
 364 0 l 1,20,-1
 364 -110 l 1,21,-1
 268 -110 l 1,22,-1
 268 0 l 1,23,-1
 244 0 l 2,24,25
 86 0 86 0 86 158 c 2,0,-1
EndSplineSet
EndChar

StartChar: sterling
Encoding: 100 163 100
Width: 578
Flags: W
LayerCount: 2
Fore
SplineSet
58 0 m 1,0,-1
 58 110 l 1,1,-1
 146 110 l 1,2,-1
 146 297 l 1,3,-1
 58 297 l 1,4,-1
 58 393 l 1,5,-1
 146 393 l 1,6,-1
 146 528 l 2,7,8
 146 690 146 690 309 690 c 2,9,-1
 451 690 l 1,10,-1
 510 644 l 1,11,-1
 510 580 l 1,12,-1
 312 580 l 2,13,14
 268 580 268 580 268 536 c 2,15,-1
 268 393 l 1,16,-1
 424 393 l 1,17,-1
 424 297 l 1,18,-1
 268 297 l 1,19,-1
 268 110 l 1,20,-1
 530 110 l 1,21,-1
 530 0 l 1,22,-1
 58 0 l 1,0,-1
EndSplineSet
EndChar

StartChar: currency
Encoding: 101 164 101
Width: 578
Flags: W
LayerCount: 2
Fore
SplineSet
49 166 m 1,0,-1
 130 248 l 1,1,-1
 130 452 l 1,2,-1
 49 534 l 1,3,-1
 110 595 l 1,4,-1
 192 514 l 1,5,-1
 386 514 l 1,6,-1
 468 595 l 1,7,-1
 529 534 l 1,8,-1
 448 452 l 1,9,-1
 448 248 l 1,10,-1
 529 166 l 1,11,-1
 468 105 l 1,12,-1
 386 186 l 1,13,-1
 192 186 l 1,14,-1
 110 105 l 1,15,-1
 49 166 l 1,0,-1
222 292 m 2,16,17
 222 273 222 273 241 273 c 2,18,-1
 337 273 l 2,19,20
 356 273 356 273 356 292 c 2,21,-1
 356 408 l 2,22,23
 356 427 356 427 337 427 c 2,24,-1
 241 427 l 2,25,26
 222 427 222 427 222 408 c 2,27,-1
 222 292 l 2,16,17
EndSplineSet
EndChar

StartChar: yen
Encoding: 102 165 102
Width: 578
Flags: W
LayerCount: 2
Fore
SplineSet
17 666 m 1,0,-1
 32 690 l 1,1,-1
 135 690 l 1,2,-1
 289 396 l 1,3,-1
 443 690 l 1,4,-1
 546 690 l 1,5,-1
 561 666 l 1,6,-1
 384 334 l 1,7,-1
 487 334 l 1,8,-1
 487 253 l 1,9,-1
 350 253 l 1,10,-1
 350 187 l 1,11,-1
 487 187 l 1,12,-1
 487 106 l 1,13,-1
 350 106 l 1,14,-1
 350 0 l 1,15,-1
 228 0 l 1,16,-1
 228 106 l 1,17,-1
 91 106 l 1,18,-1
 91 187 l 1,19,-1
 228 187 l 1,20,-1
 228 253 l 1,21,-1
 91 253 l 1,22,-1
 91 334 l 1,23,-1
 194 334 l 1,24,-1
 17 666 l 1,0,-1
EndSplineSet
EndChar

StartChar: brokenbar
Encoding: 103 166 103
Width: 298
Flags: W
LayerCount: 2
Fore
SplineSet
96 174 m 1,0,-1
 202 174 l 1,1,-1
 202 -200 l 1,2,-1
 96 -200 l 1,3,-1
 96 174 l 1,0,-1
96 366 m 1,4,-1
 96 740 l 1,5,-1
 202 740 l 1,6,-1
 202 366 l 1,7,-1
 96 366 l 1,4,-1
EndSplineSet
EndChar

StartChar: section
Encoding: 104 167 104
Width: 543
Flags: W
LayerCount: 2
Fore
SplineSet
75 2 m 1,0,-1
 305 2 l 2,1,2
 352 2 352 2 352 51 c 256,3,4
 352 102 352 102 311 109 c 2,5,-1
 199 127 l 2,6,7
 75 148 75 148 75 268 c 2,8,-1
 75 371 l 1,9,-1
 123 419 l 1,10,11
 75 456 75 456 75 533 c 256,12,13
 75 690 75 690 233 690 c 2,14,-1
 392 690 l 1,15,-1
 444 651 l 1,16,-1
 444 588 l 1,17,-1
 238 588 l 2,18,19
 191 588 191 588 191 539 c 256,20,21
 191 488 191 488 232 481 c 2,22,-1
 344 463 l 2,23,24
 468 442 468 442 468 322 c 2,25,-1
 468 219 l 1,26,-1
 420 171 l 1,27,28
 468 134 468 134 468 57 c 256,29,30
 468 -100 468 -100 311 -100 c 2,31,-1
 128 -100 l 1,32,-1
 75 -61 l 1,33,-1
 75 2 l 1,0,-1
191 274 m 2,34,35
 191 227 191 227 232 220 c 2,36,-1
 352 200 l 1,37,-1
 352 316 l 2,38,39
 352 363 352 363 311 370 c 2,40,-1
 191 390 l 1,41,-1
 191 274 l 2,34,35
EndSplineSet
EndChar

StartChar: copyright
Encoding: 106 169 106
Width: 843
Flags: W
LayerCount: 2
Fore
SplineSet
75 109 m 2,0,-1
 75 581 l 2,1,2
 75 690 75 690 184 690 c 2,3,-1
 658 690 l 2,4,5
 768 690 768 690 768 581 c 2,6,-1
 768 109 l 2,7,8
 768 0 768 0 658 0 c 2,9,-1
 184 0 l 2,10,11
 75 0 75 0 75 109 c 2,0,-1
161 97 m 2,12,13
 161 78 161 78 181 78 c 2,14,-1
 662 78 l 2,15,16
 681 78 681 78 681 97 c 2,17,-1
 681 593 l 2,18,19
 681 612 681 612 662 612 c 2,20,-1
 181 612 l 2,21,22
 161 612 161 612 161 593 c 2,23,-1
 161 97 l 2,12,13
258 269 m 2,24,-1
 258 421 l 2,25,26
 258 535 258 535 372 535 c 2,27,-1
 513 535 l 1,28,-1
 554 502 l 1,29,-1
 554 452 l 1,30,-1
 369 452 l 2,31,32
 350 452 350 452 350 432 c 2,33,-1
 350 258 l 2,34,35
 350 238 350 238 369 238 c 2,36,-1
 554 238 l 1,37,-1
 554 188 l 1,38,-1
 513 155 l 1,39,-1
 372 155 l 2,40,41
 258 155 258 155 258 269 c 2,24,-1
EndSplineSet
EndChar

StartChar: ordfeminine
Encoding: 107 170 107
Width: 403
Flags: W
LayerCount: 2
Fore
SplineSet
36 411 m 2,0,-1
 36 421 l 2,1,2
 36 535 36 535 150 535 c 2,3,-1
 265 535 l 1,4,-1
 265 587 l 2,5,6
 265 607 265 607 245 607 c 2,7,-1
 71 607 l 1,8,-1
 71 657 l 1,9,-1
 113 690 l 1,10,-1
 242 690 l 2,11,12
 356 690 356 690 356 576 c 2,13,-1
 356 297 l 1,14,-1
 150 297 l 2,15,16
 36 297 36 297 36 411 c 2,0,-1
128 400 m 2,17,18
 128 381 128 381 147 381 c 2,19,-1
 265 381 l 1,20,-1
 265 458 l 1,21,-1
 147 458 l 2,22,23
 128 458 128 458 128 439 c 2,24,-1
 128 400 l 2,17,18
EndSplineSet
EndChar

StartChar: logicalnot
Encoding: 109 172 109
Width: 578
Flags: W
LayerCount: 2
Fore
SplineSet
61 335 m 1,0,-1
 61 435 l 1,1,-1
 517 435 l 1,2,-1
 517 147 l 1,3,-1
 411 147 l 1,4,-1
 411 335 l 1,5,-1
 61 335 l 1,0,-1
EndSplineSet
EndChar

StartChar: registered
Encoding: 111 174 111
Width: 843
Flags: W
LayerCount: 2
Fore
SplineSet
75 109 m 2,0,-1
 75 581 l 2,1,2
 75 690 75 690 184 690 c 2,3,-1
 658 690 l 2,4,5
 768 690 768 690 768 581 c 2,6,-1
 768 109 l 2,7,8
 768 0 768 0 658 0 c 2,9,-1
 184 0 l 2,10,11
 75 0 75 0 75 109 c 2,0,-1
161 97 m 2,12,13
 161 78 161 78 181 78 c 2,14,-1
 662 78 l 2,15,16
 681 78 681 78 681 97 c 2,17,-1
 681 593 l 2,18,19
 681 612 681 612 662 612 c 2,20,-1
 181 612 l 2,21,22
 161 612 161 612 161 593 c 2,23,-1
 161 97 l 2,12,13
275 155 m 1,24,-1
 275 535 l 1,25,-1
 460 535 l 2,26,27
 574 535 574 535 574 421 c 2,28,-1
 574 393 l 2,29,30
 574 316 574 316 521 292 c 1,31,-1
 580 175 l 1,32,-1
 569 155 l 1,33,-1
 490 155 l 1,34,-1
 427 279 l 1,35,-1
 366 279 l 1,36,-1
 366 155 l 1,37,-1
 275 155 l 1,24,-1
366 362 m 1,38,-1
 463 362 l 2,39,40
 482 362 482 362 482 382 c 2,41,-1
 482 432 l 2,42,43
 482 452 482 452 463 452 c 2,44,-1
 366 452 l 1,45,-1
 366 362 l 1,38,-1
EndSplineSet
EndChar

StartChar: degree
Encoding: 113 176 113
Width: 411
Flags: W
LayerCount: 2
Fore
SplineSet
55 479 m 2,0,-1
 55 581 l 2,1,2
 55 690 55 690 164 690 c 2,3,-1
 247 690 l 2,4,5
 356 690 356 690 356 581 c 2,6,-1
 356 479 l 2,7,8
 356 370 356 370 247 370 c 2,9,-1
 164 370 l 2,10,11
 55 370 55 370 55 479 c 2,0,-1
141 467 m 2,12,13
 141 448 141 448 161 448 c 2,14,-1
 250 448 l 2,15,16
 270 448 270 448 270 467 c 2,17,-1
 270 593 l 2,18,19
 270 612 270 612 250 612 c 2,20,-1
 161 612 l 2,21,22
 141 612 141 612 141 593 c 2,23,-1
 141 467 l 2,12,13
EndSplineSet
EndChar

StartChar: plusminus
Encoding: 114 177 114
Width: 578
Flags: W
LayerCount: 2
Fore
SplineSet
61 0 m 1,0,-1
 61 100 l 1,1,-1
 517 100 l 1,2,-1
 517 0 l 1,3,-1
 61 0 l 1,0,-1
61 317 m 1,4,-1
 61 418 l 1,5,-1
 236 418 l 1,6,-1
 236 590 l 1,7,-1
 342 590 l 1,8,-1
 342 418 l 1,9,-1
 517 418 l 1,10,-1
 517 317 l 1,11,-1
 342 317 l 1,12,-1
 342 145 l 1,13,-1
 236 145 l 1,14,-1
 236 317 l 1,15,-1
 61 317 l 1,4,-1
EndSplineSet
EndChar

StartChar: uni00B2
Encoding: 115 178 115
Width: 364
Flags: W
LayerCount: 2
Fore
SplineSet
36 276 m 1,0,-1
 36 406 l 2,1,2
 36 493 36 493 121 510 c 10,3,-1
 215 529 l 2,4,5
 236 533 236 533 236 554 c 2,6,-1
 236 587 l 2,7,8
 236 607 236 607 216 607 c 2,9,-1
 48 607 l 1,10,-1
 48 657 l 1,11,-1
 90 690 l 1,12,-1
 214 690 l 2,13,14
 328 690 328 690 328 576 c 2,15,-1
 328 553 l 2,16,17
 328 465 328 465 243 448 c 10,18,-1
 149 429 l 2,19,20
 128 425 128 425 128 405 c 2,21,-1
 128 359 l 1,22,-1
 328 359 l 1,23,-1
 328 276 l 1,24,-1
 36 276 l 1,0,-1
EndSplineSet
EndChar

StartChar: uni00B3
Encoding: 116 179 116
Width: 364
Flags: W
LayerCount: 2
Fore
SplineSet
42 309 m 1,0,-1
 42 359 l 1,1,-1
 216 359 l 2,2,3
 236 359 236 359 236 379 c 2,4,-1
 236 426 l 2,5,6
 236 446 236 446 216 446 c 2,7,-1
 86 446 l 1,8,-1
 86 529 l 1,9,-1
 216 529 l 2,10,11
 236 529 236 529 236 548 c 2,12,-1
 236 587 l 2,13,14
 236 607 236 607 216 607 c 2,15,-1
 48 607 l 1,16,-1
 48 657 l 1,17,-1
 90 690 l 1,18,-1
 214 690 l 2,19,20
 328 690 328 690 328 576 c 2,21,-1
 328 555 l 2,22,23
 328 528 328 528 311 511 c 2,24,-1
 288 488 l 1,25,-1
 311 465 l 2,26,27
 328 448 328 448 328 421 c 2,28,-1
 328 390 l 2,29,30
 328 276 328 276 214 276 c 2,31,-1
 84 276 l 1,32,-1
 42 309 l 1,0,-1
EndSplineSet
EndChar

StartChar: mu
Encoding: 118 181 118
Width: 591
Flags: W
LayerCount: 2
Fore
SplineSet
75 -200 m 1,0,-1
 75 525 l 1,1,-1
 192 525 l 1,2,-1
 192 102 l 1,3,-1
 357 102 l 2,4,5
 404 102 404 102 404 148 c 2,6,-1
 404 525 l 1,7,-1
 520 525 l 1,8,-1
 520 158 l 2,9,10
 520 0 520 0 363 0 c 2,11,-1
 192 0 l 1,12,-1
 192 -200 l 1,13,-1
 75 -200 l 1,0,-1
EndSplineSet
EndChar

StartChar: paragraph
Encoding: 119 182 119
Width: 625
Flags: W
LayerCount: 2
Fore
SplineSet
65 371 m 2,0,-1
 65 540 l 2,1,2
 65 690 65 690 215 690 c 2,3,-1
 344 690 l 1,4,-1
 344 221 l 1,5,-1
 215 221 l 2,6,7
 65 221 65 221 65 371 c 2,0,-1
414 -170 m 1,8,-1
 414 690 l 1,9,-1
 530 690 l 1,10,-1
 530 -170 l 1,11,-1
 414 -170 l 1,8,-1
EndSplineSet
EndChar

StartChar: uni00B9
Encoding: 122 185 122
Width: 364
Flags: W
LayerCount: 2
Fore
SplineSet
54 276 m 1,0,-1
 54 359 l 1,1,-1
 147 359 l 1,2,-1
 147 607 l 1,3,-1
 71 607 l 1,4,-1
 71 657 l 1,5,-1
 113 690 l 1,6,-1
 239 690 l 1,7,-1
 239 359 l 1,8,-1
 322 359 l 1,9,-1
 322 276 l 1,10,-1
 54 276 l 1,0,-1
EndSplineSet
EndChar

StartChar: ordmasculine
Encoding: 123 186 123
Width: 433
Flags: W
LayerCount: 2
Fore
SplineSet
46 411 m 2,0,-1
 46 576 l 2,1,2
 46 690 46 690 160 690 c 2,3,-1
 272 690 l 2,4,5
 386 690 386 690 386 576 c 2,6,-1
 386 411 l 2,7,8
 386 297 386 297 272 297 c 2,9,-1
 160 297 l 2,10,11
 46 297 46 297 46 411 c 2,0,-1
138 400 m 2,12,13
 138 381 138 381 157 381 c 2,14,-1
 275 381 l 2,15,16
 295 381 295 381 295 400 c 2,17,-1
 295 587 l 2,18,19
 295 607 295 607 275 607 c 2,20,-1
 157 607 l 2,21,22
 138 607 138 607 138 587 c 2,23,-1
 138 400 l 2,12,13
EndSplineSet
EndChar

StartChar: questiondown
Encoding: 128 191 128
Width: 495
Flags: W
LayerCount: 2
Fore
SplineSet
50 -3 m 2,0,-1
 50 84 l 2,1,2
 50 246 50 246 212 246 c 2,3,-1
 234 246 l 1,4,-1
 234 307 l 1,5,-1
 356 307 l 1,6,-1
 356 136 l 1,7,-1
 216 136 l 2,8,9
 172 136 172 136 172 92 c 2,10,-1
 172 -11 l 2,11,12
 172 -55 172 -55 216 -55 c 2,13,-1
 475 -55 l 1,14,-1
 475 -119 l 1,15,-1
 416 -165 l 1,16,-1
 212 -165 l 2,17,18
 50 -165 50 -165 50 -3 c 2,0,-1
230 394 m 1,19,-1
 230 525 l 1,20,-1
 361 525 l 1,21,-1
 361 394 l 1,22,-1
 230 394 l 1,19,-1
EndSplineSet
EndChar

StartChar: AE
Encoding: 135 198 135
Width: 914
Flags: W
LayerCount: 2
Fore
SplineSet
19 24 m 1,0,-1
 232 690 l 1,1,-1
 864 690 l 1,2,-1
 864 580 l 1,3,-1
 541 580 l 1,4,-1
 541 413 l 1,5,-1
 834 413 l 1,6,-1
 834 303 l 1,7,-1
 541 303 l 1,8,-1
 541 110 l 1,9,-1
 864 110 l 1,10,-1
 864 0 l 1,11,-1
 419 0 l 1,12,-1
 419 153 l 1,13,-1
 183 153 l 1,14,-1
 136 0 l 1,15,-1
 35 0 l 1,16,-1
 19 24 l 1,0,-1
217 263 m 1,17,-1
 419 263 l 1,18,-1
 419 580 l 1,19,-1
 317 580 l 1,20,-1
 217 263 l 1,17,-1
EndSplineSet
EndChar

StartChar: Eth
Encoding: 145 208 145
Width: 699
Flags: W
LayerCount: 2
Fore
SplineSet
20 297 m 1,0,-1
 20 393 l 1,1,-1
 99 393 l 1,2,-1
 99 690 l 1,3,-1
 391 690 l 2,4,5
 634 690 634 690 634 447 c 2,6,-1
 634 243 l 2,7,8
 634 0 634 0 391 0 c 2,9,-1
 99 0 l 1,10,-1
 99 297 l 1,11,-1
 20 297 l 1,0,-1
221 110 m 1,12,-1
 391 110 l 2,13,14
 512 110 512 110 512 231 c 2,15,-1
 512 459 l 2,16,17
 512 580 512 580 391 580 c 2,18,-1
 221 580 l 1,19,-1
 221 393 l 1,20,-1
 366 393 l 1,21,-1
 366 297 l 1,22,-1
 221 297 l 1,23,-1
 221 110 l 1,12,-1
EndSplineSet
EndChar

StartChar: multiply
Encoding: 152 215 152
Width: 578
Flags: W
LayerCount: 2
Fore
SplineSet
73 191 m 1,0,-1
 218 335 l 1,1,-1
 73 479 l 1,2,-1
 145 551 l 1,3,-1
 289 406 l 1,4,-1
 433 551 l 1,5,-1
 505 479 l 1,6,-1
 360 335 l 1,7,-1
 505 191 l 1,8,-1
 433 119 l 1,9,-1
 289 264 l 1,10,-1
 145 119 l 1,11,-1
 73 191 l 1,0,-1
EndSplineSet
EndChar

StartChar: Oslash
Encoding: 153 216 153
Width: 705
Flags: W
LayerCount: 2
Fore
SplineSet
75 162 m 2,0,-1
 75 528 l 2,1,2
 75 690 75 690 237 690 c 2,3,-1
 468 690 l 2,4,5
 630 690 630 690 630 528 c 2,6,-1
 630 162 l 2,7,8
 630 0 630 0 468 0 c 2,9,-1
 237 0 l 2,10,11
 75 0 75 0 75 162 c 2,0,-1
197 264 m 1,12,-1
 507 544 l 1,13,14
 504 580 504 580 464 580 c 2,15,-1
 241 580 l 2,16,17
 197 580 197 580 197 536 c 2,18,-1
 197 264 l 1,12,-1
198 146 m 1,19,20
 201 110 201 110 241 110 c 2,21,-1
 464 110 l 2,22,23
 508 110 508 110 508 154 c 2,24,-1
 508 426 l 1,25,-1
 198 146 l 1,19,20
EndSplineSet
EndChar

StartChar: Thorn
Encoding: 159 222 159
Width: 635
Flags: W
LayerCount: 2
Fore
SplineSet
85 0 m 1,0,-1
 85 690 l 1,1,-1
 207 690 l 1,2,-1
 207 583 l 1,3,-1
 418 583 l 2,4,5
 580 583 580 583 580 420 c 2,6,-1
 580 284 l 2,7,8
 580 121 580 121 418 121 c 2,9,-1
 207 121 l 1,10,-1
 207 0 l 1,11,-1
 85 0 l 1,0,-1
207 231 m 1,12,-1
 414 231 l 2,13,14
 458 231 458 231 458 275 c 2,15,-1
 458 429 l 2,16,17
 458 473 458 473 414 473 c 2,18,-1
 207 473 l 1,19,-1
 207 231 l 1,12,-1
EndSplineSet
EndChar

StartChar: germandbls
Encoding: 160 223 160
Width: 613
Flags: W
LayerCount: 2
Fore
SplineSet
75 0 m 1,0,-1
 75 582 l 2,1,2
 75 740 75 740 233 740 c 2,3,-1
 369 740 l 2,4,5
 526 740 526 740 526 582 c 2,6,-1
 526 491 l 2,7,8
 526 457 526 457 506 433 c 2,9,-1
 471 391 l 1,10,-1
 513 356 l 2,11,12
 546 328 546 328 546 276 c 2,13,-1
 546 158 l 2,14,15
 546 0 546 0 389 0 c 2,16,-1
 316 0 l 1,17,-1
 264 39 l 1,18,-1
 264 102 l 1,19,-1
 384 102 l 2,20,21
 430 102 430 102 430 148 c 2,22,-1
 430 288 l 2,23,24
 430 334 430 334 384 334 c 2,25,-1
 274 334 l 1,26,-1
 274 436 l 1,27,-1
 364 436 l 2,28,29
 410 436 410 436 410 482 c 2,30,-1
 410 592 l 2,31,32
 410 638 410 638 364 638 c 2,33,-1
 238 638 l 2,34,35
 192 638 192 638 192 592 c 2,36,-1
 192 0 l 1,37,-1
 75 0 l 1,0,-1
EndSplineSet
EndChar

StartChar: ae
Encoding: 167 230 167
Width: 866
Flags: W
LayerCount: 2
Fore
SplineSet
205 0 m 2,0,1
 47 0 47 0 47 156 c 128,-1,2
 47 312 47 312 205 312 c 2,3,-1
 358 312 l 1,4,-1
 358 377 l 2,5,6
 358 424 358 424 312 424 c 2,7,-1
 101 424 l 1,8,-1
 101 486 l 1,9,-1
 153 525 l 1,10,-1
 306 525 l 2,11,12
 376 525 376 525 416 485 c 1,13,14
 456 525 456 525 527 525 c 2,15,-1
 642 525 l 2,16,17
 799 525 799 525 799 367 c 2,18,-1
 799 217 l 1,19,-1
 475 217 l 1,20,-1
 475 148 l 2,21,22
 475 102 475 102 521 102 c 2,23,-1
 779 102 l 1,24,-1
 779 39 l 1,25,-1
 727 0 l 1,26,-1
 527 0 l 2,27,28
 456 0 456 0 416 40 c 1,29,30
 376 0 376 0 306 0 c 2,31,-1
 205 0 l 2,0,1
164 148 m 2,32,33
 164 102 164 102 210 102 c 2,34,-1
 312 102 l 2,35,36
 358 102 358 102 358 148 c 2,37,-1
 358 218 l 1,38,-1
 210 218 l 2,39,40
 164 218 164 218 164 172 c 2,41,-1
 164 148 l 2,32,33
475 311 m 1,42,-1
 683 311 l 1,43,-1
 683 377 l 2,44,45
 683 424 683 424 637 424 c 2,46,-1
 521 424 l 2,47,48
 475 424 475 424 475 377 c 2,49,-1
 475 311 l 1,42,-1
EndSplineSet
EndChar

StartChar: eth
Encoding: 177 240 177
Width: 589
Flags: W
LayerCount: 2
Fore
SplineSet
67 158 m 2,0,-1
 67 292 l 2,1,2
 67 450 67 450 225 450 c 2,3,-1
 384 450 l 1,4,-1
 318 553 l 1,5,-1
 209 501 l 1,6,-1
 172 582 l 1,7,-1
 271 630 l 1,8,-1
 226 700 l 1,9,-1
 318 759 l 1,10,-1
 370 677 l 1,11,-1
 465 722 l 1,12,-1
 502 641 l 1,13,-1
 418 602 l 1,14,-1
 485 495 l 2,15,16
 522 436 522 436 522 376 c 2,17,-1
 522 158 l 2,18,19
 522 0 522 0 365 0 c 2,20,-1
 225 0 l 2,21,22
 67 0 67 0 67 158 c 2,0,-1
184 148 m 2,23,24
 184 102 184 102 230 102 c 2,25,-1
 359 102 l 2,26,27
 406 102 406 102 406 148 c 2,28,-1
 406 348 l 1,29,-1
 230 348 l 2,30,31
 184 348 184 348 184 302 c 2,32,-1
 184 148 l 2,23,24
EndSplineSet
EndChar

StartChar: divide
Encoding: 184 247 184
Width: 578
Flags: W
LayerCount: 2
Fore
SplineSet
61 285 m 1,0,-1
 61 385 l 1,1,-1
 517 385 l 1,2,-1
 517 285 l 1,3,-1
 61 285 l 1,0,-1
235 91 m 1,4,-1
 235 199 l 1,5,-1
 343 199 l 1,6,-1
 343 91 l 1,7,-1
 235 91 l 1,4,-1
235 471 m 1,8,-1
 235 579 l 1,9,-1
 343 579 l 1,10,-1
 343 471 l 1,11,-1
 235 471 l 1,8,-1
EndSplineSet
EndChar

StartChar: oslash
Encoding: 185 248 185
Width: 589
Flags: W
LayerCount: 2
Fore
SplineSet
67 158 m 2,0,-1
 67 367 l 2,1,2
 67 525 67 525 225 525 c 2,3,-1
 365 525 l 2,4,5
 522 525 522 525 522 367 c 2,6,-1
 522 158 l 2,7,8
 522 0 522 0 365 0 c 2,9,-1
 225 0 l 2,10,11
 67 0 67 0 67 158 c 2,0,-1
184 218 m 1,12,-1
 395 408 l 1,13,14
 383 424 383 424 359 424 c 2,15,-1
 230 424 l 2,16,17
 184 424 184 424 184 377 c 2,18,-1
 184 218 l 1,12,-1
194 117 m 1,19,20
 206 102 206 102 230 102 c 2,21,-1
 359 102 l 2,22,23
 406 102 406 102 406 148 c 2,24,-1
 406 307 l 1,25,-1
 194 117 l 1,19,20
EndSplineSet
EndChar

StartChar: thorn
Encoding: 191 254 191
Width: 587
Flags: W
LayerCount: 2
Fore
SplineSet
75 -200 m 1,0,-1
 75 740 l 1,1,-1
 192 740 l 1,2,-1
 192 525 l 1,3,-1
 363 525 l 2,4,5
 520 525 520 525 520 367 c 2,6,-1
 520 158 l 2,7,8
 520 0 520 0 363 0 c 2,9,-1
 192 0 l 1,10,-1
 192 -200 l 1,11,-1
 75 -200 l 1,0,-1
192 102 m 1,12,-1
 357 102 l 2,13,14
 404 102 404 102 404 148 c 2,15,-1
 404 377 l 2,16,17
 404 424 404 424 357 424 c 2,18,-1
 192 424 l 1,19,-1
 192 102 l 1,12,-1
EndSplineSet
EndChar

StartChar: dcroat
Encoding: 206 273 206
Width: 587
Flags: W
LayerCount: 2
Fore
SplineSet
67 158 m 2,0,-1
 67 367 l 2,1,2
 67 525 67 525 225 525 c 2,3,-1
 396 525 l 1,4,-1
 396 592 l 1,5,-1
 237 592 l 1,6,-1
 237 673 l 1,7,-1
 396 673 l 1,8,-1
 396 740 l 1,9,-1
 512 740 l 1,10,-1
 512 673 l 1,11,-1
 581 673 l 1,12,-1
 581 592 l 1,13,-1
 512 592 l 1,14,-1
 512 0 l 1,15,-1
 225 0 l 2,16,17
 67 0 67 0 67 158 c 2,0,-1
184 148 m 2,18,19
 184 102 184 102 230 102 c 2,20,-1
 396 102 l 1,21,-1
 396 424 l 1,22,-1
 230 424 l 2,23,24
 184 424 184 424 184 377 c 2,25,-1
 184 148 l 2,18,19
EndSplineSet
EndChar

StartChar: dotlessi
Encoding: 224 305 224
Width: 266
Flags: W
LayerCount: 2
Fore
SplineSet
75 0 m 1,0,-1
 75 525 l 1,1,-1
 192 525 l 1,2,-1
 192 0 l 1,3,-1
 75 0 l 1,0,-1
EndSplineSet
EndChar

StartChar: Lslash
Encoding: 233 321 233
Width: 565
Flags: W
LayerCount: 2
Fore
SplineSet
10 295 m 1,0,-1
 107 351 l 1,1,-1
 107 690 l 1,2,-1
 229 690 l 1,3,-1
 229 421 l 1,4,-1
 352 492 l 1,5,-1
 399 410 l 1,6,-1
 229 312 l 1,7,-1
 229 110 l 1,8,-1
 541 110 l 1,9,-1
 541 0 l 1,10,-1
 107 0 l 1,11,-1
 107 241 l 1,12,-1
 57 213 l 1,13,-1
 10 295 l 1,0,-1
EndSplineSet
EndChar

StartChar: lslash
Encoding: 234 322 234
Width: 313
Flags: W
LayerCount: 2
Fore
SplineSet
-3 343 m 1,0,-1
 86 394 l 1,1,-1
 86 740 l 1,2,-1
 203 740 l 1,3,-1
 203 461 l 1,4,-1
 270 500 l 1,5,-1
 314 423 l 1,6,-1
 203 359 l 1,7,-1
 203 162 l 2,8,9
 203 98 203 98 269 92 c 1,10,-1
 269 -9 l 1,11,12
 86 -9 86 -9 86 174 c 2,13,-1
 86 292 l 1,14,-1
 42 266 l 1,15,-1
 -3 343 l 1,0,-1
EndSplineSet
EndChar

StartChar: OE
Encoding: 245 338 245
Width: 971
Flags: W
LayerCount: 2
Fore
SplineSet
75 162 m 2,0,-1
 75 528 l 2,1,2
 75 690 75 690 237 690 c 2,3,-1
 921 690 l 1,4,-1
 921 580 l 1,5,-1
 597 580 l 1,6,-1
 597 413 l 1,7,-1
 891 413 l 1,8,-1
 891 303 l 1,9,-1
 597 303 l 1,10,-1
 597 110 l 1,11,-1
 921 110 l 1,12,-1
 921 0 l 1,13,-1
 237 0 l 2,14,15
 75 0 75 0 75 162 c 2,0,-1
197 154 m 2,16,17
 197 110 197 110 241 110 c 2,18,-1
 476 110 l 1,19,-1
 476 580 l 1,20,-1
 241 580 l 2,21,22
 197 580 197 580 197 536 c 2,23,-1
 197 154 l 2,16,17
EndSplineSet
EndChar

StartChar: oe
Encoding: 246 339 246
Width: 910
Flags: W
LayerCount: 2
Fore
SplineSet
67 158 m 2,0,-1
 67 367 l 2,1,2
 67 525 67 525 225 525 c 2,3,-1
 350 525 l 2,4,5
 420 525 420 525 460 485 c 1,6,7
 500 525 500 525 570 525 c 2,8,-1
 686 525 l 2,9,10
 843 525 843 525 843 367 c 2,11,-1
 843 217 l 1,12,-1
 518 217 l 1,13,-1
 518 148 l 2,14,15
 518 102 518 102 564 102 c 2,16,-1
 823 102 l 1,17,-1
 823 39 l 1,18,-1
 771 0 l 1,19,-1
 570 0 l 2,20,21
 500 0 500 0 460 40 c 1,22,23
 420 0 420 0 350 0 c 2,24,-1
 225 0 l 2,25,26
 67 0 67 0 67 158 c 2,0,-1
184 148 m 2,27,28
 184 102 184 102 230 102 c 2,29,-1
 356 102 l 2,30,31
 402 102 402 102 402 148 c 2,32,-1
 402 377 l 2,33,34
 402 424 402 424 356 424 c 2,35,-1
 230 424 l 2,36,37
 184 424 184 424 184 377 c 2,38,-1
 184 148 l 2,27,28
518 311 m 1,39,-1
 727 311 l 1,40,-1
 727 377 l 2,41,42
 727 424 727 424 681 424 c 2,43,-1
 564 424 l 2,44,45
 518 424 518 424 518 377 c 2,46,-1
 518 311 l 1,39,-1
EndSplineSet
EndChar

StartChar: florin
Encoding: 278 402 278
Width: 575
Flags: W
LayerCount: 2
Fore
SplineSet
40 -52 m 1,0,-1
 139 -52 l 2,1,2
 185 -52 185 -52 185 -6 c 2,3,-1
 185 582 l 2,4,5
 185 740 185 740 343 740 c 2,6,-1
 438 740 l 1,7,-1
 490 701 l 1,8,-1
 490 638 l 1,9,-1
 348 638 l 2,10,11
 302 638 302 638 302 592 c 2,12,-1
 302 525 l 1,13,-1
 480 525 l 1,14,-1
 480 424 l 1,15,-1
 302 424 l 1,16,-1
 302 4 l 2,17,18
 302 -154 302 -154 144 -154 c 2,19,-1
 93 -154 l 1,20,-1
 40 -114 l 1,21,-1
 40 -52 l 1,0,-1
EndSplineSet
EndChar

StartChar: uni0237
Encoding: 283 567 283
Width: 266
Flags: W
LayerCount: 2
Fore
SplineSet
-9 -110 m 1,0,1
 75 -104 75 -104 75 -22 c 2,2,-1
 75 525 l 1,3,-1
 192 525 l 1,4,-1
 192 -8 l 2,5,6
 192 -209 192 -209 -9 -209 c 1,7,-1
 -9 -110 l 1,0,1
EndSplineSet
EndChar

StartChar: uni0300
Encoding: 293 768 293
Width: 0
Flags: W
LayerCount: 2
Fore
SplineSet
-413 718 m 1,0,-1
 -346 782 l 1,1,-1
 -212 629 l 1,2,-1
 -270 575 l 1,3,-1
 -413 718 l 1,0,-1
EndSplineSet
EndChar

StartChar: uni0301
Encoding: 294 769 294
Width: 0
Flags: W
LayerCount: 2
Fore
SplineSet
-365 629 m 1,0,-1
 -231 782 l 1,1,-1
 -164 718 l 1,2,-1
 -308 575 l 1,3,-1
 -365 629 l 1,0,-1
EndSplineSet
EndChar

StartChar: uni0302
Encoding: 295 770 295
Width: 0
Flags: W
LayerCount: 2
Fore
SplineSet
-438 635 m 1,0,-1
 -289 782 l 1,1,-1
 -139 635 l 1,2,-1
 -190 581 l 1,3,-1
 -289 674 l 1,4,-1
 -387 581 l 1,5,-1
 -438 635 l 1,0,-1
EndSplineSet
EndChar

StartChar: uni0303
Encoding: 296 771 296
Width: 0
Flags: W
LayerCount: 2
Fore
SplineSet
-457 647 m 1,0,-1
 -394 710 l 2,1,2
 -374 730 -374 730 -341 730 c 128,-1,3
 -308 730 -308 730 -288 710 c 2,4,-1
 -246 668 l 2,5,6
 -241 663 -241 663 -236 663 c 128,-1,7
 -231 663 -231 663 -226 668 c 2,8,-1
 -171 723 l 1,9,-1
 -120 671 l 1,10,-1
 -183 608 l 2,11,12
 -203 588 -203 588 -236 588 c 128,-1,13
 -269 588 -269 588 -289 608 c 2,14,-1
 -331 650 l 2,15,16
 -336 655 -336 655 -341 655 c 128,-1,17
 -346 655 -346 655 -351 650 c 2,18,-1
 -406 595 l 1,19,-1
 -457 647 l 1,0,-1
EndSplineSet
EndChar

StartChar: uni0304
Encoding: 297 772 297
Width: 0
Flags: W
LayerCount: 2
Fore
SplineSet
-429 621 m 1,0,-1
 -429 705 l 1,1,-1
 -148 705 l 1,2,-1
 -148 621 l 1,3,-1
 -429 621 l 1,0,-1
EndSplineSet
EndChar

StartChar: uni0306
Encoding: 298 774 298
Width: 0
Flags: W
LayerCount: 2
Fore
SplineSet
-422 677 m 2,0,-1
 -422 739 l 1,1,-1
 -351 739 l 1,2,-1
 -351 679 l 2,3,4
 -351 667 -351 667 -340 667 c 2,5,-1
 -237 667 l 2,6,7
 -226 667 -226 667 -226 679 c 2,8,-1
 -226 739 l 1,9,-1
 -155 739 l 1,10,-1
 -155 677 l 2,11,12
 -155 597 -155 597 -236 597 c 2,13,-1
 -342 597 l 2,14,15
 -422 597 -422 597 -422 677 c 2,0,-1
EndSplineSet
EndChar

StartChar: uni0307
Encoding: 299 775 299
Width: 0
Flags: W
LayerCount: 2
Fore
SplineSet
-349 614 m 1,0,-1
 -349 732 l 1,1,-1
 -228 732 l 1,2,-1
 -228 614 l 1,3,-1
 -349 614 l 1,0,-1
EndSplineSet
EndChar

StartChar: uni0308
Encoding: 300 776 300
Width: 0
Flags: W
LayerCount: 2
Fore
SplineSet
-437 608 m 1,0,-1
 -437 718 l 1,1,-1
 -332 718 l 1,2,-1
 -332 608 l 1,3,-1
 -437 608 l 1,0,-1
-245 608 m 1,4,-1
 -245 718 l 1,5,-1
 -140 718 l 1,6,-1
 -140 608 l 1,7,-1
 -245 608 l 1,4,-1
EndSplineSet
EndChar

StartChar: uni030A
Encoding: 301 778 301
Width: 0
Flags: W
LayerCount: 2
Fore
SplineSet
-399 646 m 2,0,-1
 -399 704 l 2,1,2
 -399 780 -399 780 -323 780 c 2,3,-1
 -254 780 l 2,4,5
 -178 780 -178 780 -178 704 c 2,6,-1
 -178 646 l 2,7,8
 -178 570 -178 570 -254 570 c 2,9,-1
 -323 570 l 2,10,11
 -399 570 -399 570 -399 646 c 2,0,-1
-331 642 m 2,12,13
 -331 630 -331 630 -319 630 c 2,14,-1
 -259 630 l 2,15,16
 -246 630 -246 630 -246 642 c 2,17,-1
 -246 708 l 2,18,19
 -246 720 -246 720 -259 720 c 2,20,-1
 -319 720 l 2,21,22
 -331 720 -331 720 -331 708 c 2,23,-1
 -331 642 l 2,12,13
EndSplineSet
EndChar

StartChar: uni030B
Encoding: 302 779 302
Width: 0
Flags: W
LayerCount: 2
Fore
SplineSet
-439 623 m 1,0,-1
 -325 782 l 1,1,-1
 -254 727 l 1,2,-1
 -379 575 l 1,3,-1
 -439 623 l 1,0,-1
-262 623 m 1,4,-1
 -147 782 l 1,5,-1
 -76 727 l 1,6,-1
 -201 575 l 1,7,-1
 -262 623 l 1,4,-1
EndSplineSet
EndChar

StartChar: uni030C
Encoding: 303 780 303
Width: 0
Flags: W
LayerCount: 2
Fore
SplineSet
-438 718 m 1,0,-1
 -387 772 l 1,1,-1
 -289 679 l 1,2,-1
 -190 772 l 1,3,-1
 -139 718 l 1,4,-1
 -289 571 l 1,5,-1
 -438 718 l 1,0,-1
EndSplineSet
EndChar

StartChar: uni0326
Encoding: 304 806 304
Width: 0
Flags: W
LayerCount: 2
Fore
SplineSet
-370 -181 m 1,0,-1
 -339 -50 l 1,1,-1
 -247 -50 l 1,2,-1
 -235 -68 l 1,3,-1
 -291 -203 l 1,4,-1
 -370 -181 l 1,0,-1
EndSplineSet
EndChar

StartChar: uni0327
Encoding: 305 807 305
Width: 0
Flags: W
LayerCount: 2
Fore
SplineSet
-400 -102 m 1,0,-1
 -299 -102 l 2,1,2
 -279 -102 -279 -102 -279 -82 c 2,3,-1
 -279 51 l 1,4,-1
 -189 51 l 1,5,-1
 -189 -70 l 2,6,7
 -189 -184 -189 -184 -303 -184 c 2,8,-1
 -358 -184 l 1,9,-1
 -400 -151 l 1,10,-1
 -400 -102 l 1,0,-1
EndSplineSet
EndChar

StartChar: uni0328
Encoding: 306 808 306
Width: 0
Flags: W
LayerCount: 2
Fore
SplineSet
-376 -32 m 2,0,1
 -376 82 -376 82 -262 82 c 2,2,-1
 -241 82 l 1,3,-1
 -241 0 l 1,4,-1
 -266 0 l 2,5,6
 -286 0 -286 0 -286 -20 c 2,7,-1
 -286 -82 l 2,8,9
 -286 -102 -286 -102 -266 -102 c 2,10,-1
 -169 -102 l 1,11,-1
 -169 -151 l 1,12,-1
 -211 -184 l 1,13,-1
 -262 -184 l 2,14,15
 -376 -184 -376 -184 -376 -70 c 2,16,-1
 -376 -32 l 2,0,1
EndSplineSet
EndChar

StartChar: pi
Encoding: 307 960 307
Width: 595
Flags: W
LayerCount: 2
Fore
SplineSet
75 0 m 1,0,-1
 75 525 l 1,1,-1
 520 525 l 1,2,-1
 520 0 l 1,3,-1
 404 0 l 1,4,-1
 404 424 l 1,5,-1
 192 424 l 1,6,-1
 192 0 l 1,7,-1
 75 0 l 1,0,-1
EndSplineSet
EndChar

StartChar: uni1E9E
Encoding: 308 7838 308
Width: 695
Flags: W
LayerCount: 2
Fore
SplineSet
79 0 m 1,0,-1
 79 528 l 2,1,2
 79 690 79 690 241 690 c 2,3,-1
 574 690 l 1,4,-1
 574 595 l 1,5,-1
 441 413 l 1,6,-1
 478 413 l 2,7,8
 640 413 640 413 640 250 c 2,9,-1
 640 162 l 2,10,11
 640 0 640 0 478 0 c 2,12,-1
 342 0 l 1,13,-1
 283 46 l 1,14,-1
 283 110 l 1,15,-1
 475 110 l 2,16,17
 519 110 519 110 519 154 c 2,18,-1
 519 259 l 2,19,20
 519 303 519 303 475 303 c 2,21,-1
 297 303 l 1,22,-1
 297 398 l 1,23,-1
 430 580 l 1,24,-1
 245 580 l 2,25,26
 201 580 201 580 201 536 c 2,27,-1
 201 0 l 1,28,-1
 79 0 l 1,0,-1
EndSplineSet
EndChar

StartChar: endash
Encoding: 309 8211 309
Width: 580
Flags: W
LayerCount: 2
Fore
SplineSet
40 255 m 1,0,-1
 40 355 l 1,1,-1
 540 355 l 1,2,-1
 540 255 l 1,3,-1
 40 255 l 1,0,-1
EndSplineSet
EndChar

StartChar: emdash
Encoding: 310 8212 310
Width: 1000
Flags: W
LayerCount: 2
Fore
SplineSet
40 255 m 1,0,-1
 40 355 l 1,1,-1
 960 355 l 1,2,-1
 960 255 l 1,3,-1
 40 255 l 1,0,-1
EndSplineSet
EndChar

StartChar: quoteleft
Encoding: 311 8216 311
Width: 271
Flags: W
LayerCount: 2
Fore
SplineSet
45 497 m 1,0,-1
 144 756 l 1,1,-1
 230 734 l 1,2,-1
 165 479 l 1,3,-1
 57 479 l 1,4,-1
 45 497 l 1,0,-1
EndSplineSet
EndChar

StartChar: quoteright
Encoding: 312 8217 312
Width: 271
Flags: W
LayerCount: 2
Fore
SplineSet
41 484 m 1,0,-1
 106 740 l 1,1,-1
 214 740 l 1,2,-1
 226 722 l 1,3,-1
 127 462 l 1,4,-1
 41 484 l 1,0,-1
EndSplineSet
EndChar

StartChar: quotesinglbase
Encoding: 313 8218 313
Width: 271
Flags: W
LayerCount: 2
Fore
SplineSet
26 -124 m 1,0,-1
 91 131 l 1,1,-1
 199 131 l 1,2,-1
 211 113 l 1,3,-1
 112 -146 l 1,4,-1
 26 -124 l 1,0,-1
EndSplineSet
EndChar

StartChar: dagger
Encoding: 317 8224 317
Width: 495
Flags: W
LayerCount: 2
Fore
SplineSet
50 405 m 1,0,-1
 50 505 l 1,1,-1
 195 505 l 1,2,-1
 195 690 l 1,3,-1
 300 690 l 1,4,-1
 300 505 l 1,5,-1
 445 505 l 1,6,-1
 445 405 l 1,7,-1
 300 405 l 1,8,-1
 300 -100 l 1,9,-1
 195 -100 l 1,10,-1
 195 405 l 1,11,-1
 50 405 l 1,0,-1
EndSplineSet
EndChar

StartChar: daggerdbl
Encoding: 318 8225 318
Width: 495
Flags: W
LayerCount: 2
Fore
SplineSet
50 85 m 1,0,-1
 50 185 l 1,1,-1
 195 185 l 1,2,-1
 195 405 l 1,3,-1
 50 405 l 1,4,-1
 50 505 l 1,5,-1
 195 505 l 1,6,-1
 195 690 l 1,7,-1
 300 690 l 1,8,-1
 300 505 l 1,9,-1
 445 505 l 1,10,-1
 445 405 l 1,11,-1
 300 405 l 1,12,-1
 300 185 l 1,13,-1
 445 185 l 1,14,-1
 445 85 l 1,15,-1
 300 85 l 1,16,-1
 300 -100 l 1,17,-1
 195 -100 l 1,18,-1
 195 85 l 1,19,-1
 50 85 l 1,0,-1
EndSplineSet
EndChar

StartChar: bullet
Encoding: 319 8226 319
Width: 365
Flags: W
LayerCount: 2
Fore
SplineSet
70 247 m 1,0,-1
 70 473 l 1,1,-1
 295 473 l 1,2,-1
 295 247 l 1,3,-1
 70 247 l 1,0,-1
EndSplineSet
EndChar

StartChar: guilsinglleft
Encoding: 322 8249 322
Width: 328
Flags: W
LayerCount: 2
Fore
SplineSet
30 315 m 1,0,-1
 216 549 l 1,1,-1
 288 489 l 1,2,-1
 154 315 l 1,3,-1
 288 141 l 1,4,-1
 216 81 l 1,5,-1
 30 315 l 1,0,-1
EndSplineSet
EndChar

StartChar: guilsinglright
Encoding: 323 8250 323
Width: 328
Flags: W
LayerCount: 2
Fore
SplineSet
40 141 m 1,0,-1
 174 315 l 1,1,-1
 40 489 l 1,2,-1
 112 549 l 1,3,-1
 298 315 l 1,4,-1
 112 81 l 1,5,-1
 40 141 l 1,0,-1
EndSplineSet
EndChar

StartChar: fraction
Encoding: 324 8260 324
Width: 146
Flags: W
LayerCount: 2
Fore
SplineSet
-134 36 m 1,0,-1
 196 696 l 1,1,-1
 281 654 l 1,2,-1
 -49 -6 l 1,3,-1
 -134 36 l 1,0,-1
EndSplineSet
EndChar

StartChar: uni2070
Encoding: 325 8304 325
Width: 364
Flags: W
LayerCount: 2
Fore
SplineSet
36 390 m 2,0,-1
 36 576 l 2,1,2
 36 690 36 690 150 690 c 2,3,-1
 214 690 l 2,4,5
 328 690 328 690 328 576 c 2,6,-1
 328 390 l 2,7,8
 328 276 328 276 214 276 c 2,9,-1
 150 276 l 2,10,11
 36 276 36 276 36 390 c 2,0,-1
128 379 m 2,12,13
 128 359 128 359 147 359 c 2,14,-1
 216 359 l 2,15,16
 236 359 236 359 236 379 c 2,17,-1
 236 587 l 2,18,19
 236 607 236 607 216 607 c 2,20,-1
 147 607 l 2,21,22
 128 607 128 607 128 587 c 2,23,-1
 128 379 l 2,12,13
EndSplineSet
EndChar

StartChar: uni2074
Encoding: 326 8308 326
Width: 364
Flags: W
LayerCount: 2
Fore
SplineSet
36 336 m 1,0,-1
 36 412 l 1,1,-1
 162 690 l 1,2,-1
 243 690 l 1,3,-1
 254 672 l 1,4,-1
 138 419 l 1,5,-1
 236 419 l 1,6,-1
 236 530 l 1,7,-1
 328 530 l 1,8,-1
 328 276 l 1,9,-1
 236 276 l 1,10,-1
 236 336 l 1,11,-1
 36 336 l 1,0,-1
EndSplineSet
EndChar

StartChar: Euro
Encoding: 332 8364 332
Width: 578
Flags: W
LayerCount: 2
Fore
SplineSet
28 231 m 1,0,-1
 28 312 l 1,1,-1
 96 312 l 1,2,-1
 96 378 l 1,3,-1
 28 378 l 1,4,-1
 28 459 l 1,5,-1
 96 459 l 1,6,-1
 96 528 l 2,7,8
 96 690 96 690 259 690 c 2,9,-1
 481 690 l 1,10,-1
 540 644 l 1,11,-1
 540 580 l 1,12,-1
 262 580 l 2,13,14
 218 580 218 580 218 536 c 2,15,-1
 218 459 l 1,16,-1
 466 459 l 1,17,-1
 466 378 l 1,18,-1
 218 378 l 1,19,-1
 218 312 l 1,20,-1
 422 312 l 1,21,-1
 422 231 l 1,22,-1
 218 231 l 1,23,-1
 218 154 l 2,24,25
 218 110 218 110 262 110 c 2,26,-1
 540 110 l 1,27,-1
 540 46 l 1,28,-1
 481 0 l 1,29,-1
 259 0 l 2,30,31
 96 0 96 0 96 162 c 2,32,-1
 96 231 l 1,33,-1
 28 231 l 1,0,-1
EndSplineSet
EndChar

StartChar: uni20BA
Encoding: 333 8378 333
Width: 578
Flags: W
LayerCount: 2
Fore
SplineSet
23 308 m 1,0,-1
 116 346 l 1,1,-1
 116 409 l 1,2,-1
 53 383 l 1,3,-1
 23 458 l 1,4,-1
 116 496 l 1,5,-1
 116 690 l 1,6,-1
 238 690 l 1,7,-1
 238 545 l 1,8,-1
 412 615 l 1,9,-1
 442 540 l 1,10,-1
 238 458 l 1,11,-1
 238 395 l 1,12,-1
 412 465 l 1,13,-1
 442 390 l 1,14,-1
 238 308 l 1,15,-1
 238 110 l 1,16,-1
 268 110 l 2,17,18
 415 110 415 110 415 255 c 2,19,-1
 415 300 l 1,20,-1
 532 300 l 1,21,-1
 532 270 l 2,22,23
 532 0 532 0 261 0 c 2,24,-1
 116 0 l 1,25,-1
 116 259 l 1,26,-1
 53 233 l 1,27,-1
 23 308 l 1,0,-1
EndSplineSet
EndChar

StartChar: uni20BD
Encoding: 334 8381 334
Width: 578
Flags: W
LayerCount: 2
Fore
SplineSet
36 134 m 1,0,-1
 36 231 l 1,1,-1
 86 231 l 1,2,-1
 86 294 l 1,3,-1
 36 294 l 1,4,-1
 36 396 l 1,5,-1
 86 396 l 1,6,-1
 86 690 l 1,7,-1
 369 690 l 2,8,9
 532 690 532 690 532 528 c 2,10,-1
 532 457 l 2,11,12
 532 294 532 294 369 294 c 2,13,-1
 208 294 l 1,14,-1
 208 231 l 1,15,-1
 406 231 l 1,16,-1
 406 134 l 1,17,-1
 208 134 l 1,18,-1
 208 0 l 1,19,-1
 86 0 l 1,20,-1
 86 134 l 1,21,-1
 36 134 l 1,0,-1
208 396 m 1,22,-1
 366 396 l 2,23,24
 410 396 410 396 410 440 c 2,25,-1
 410 536 l 2,26,27
 410 580 410 580 366 580 c 2,28,-1
 208 580 l 1,29,-1
 208 396 l 1,22,-1
EndSplineSet
EndChar

StartChar: trademark
Encoding: 336 8482 336
Width: 790
Flags: W
LayerCount: 2
Fore
SplineSet
20 612 m 1,0,-1
 20 690 l 1,1,-1
 309 690 l 1,2,-1
 309 612 l 1,3,-1
 208 612 l 1,4,-1
 208 336 l 1,5,-1
 121 336 l 1,6,-1
 121 612 l 1,7,-1
 20 612 l 1,0,-1
348 336 m 1,8,-1
 348 690 l 1,9,-1
 449 690 l 1,10,-1
 541 492 l 1,11,-1
 634 690 l 1,12,-1
 735 690 l 1,13,-1
 735 336 l 1,14,-1
 648 336 l 1,15,-1
 648 533 l 1,16,-1
 576 378 l 1,17,-1
 507 378 l 1,18,-1
 434 533 l 1,19,-1
 434 336 l 1,20,-1
 348 336 l 1,8,-1
EndSplineSet
EndChar

StartChar: Omega
Encoding: 337 8486 337
Width: 705
Flags: W
LayerCount: 2
Fore
SplineSet
55 0 m 1,0,-1
 55 110 l 1,1,-1
 151 110 l 1,2,-1
 110 165 l 2,3,4
 75 211 75 211 75 271 c 2,5,-1
 75 528 l 2,6,7
 75 690 75 690 237 690 c 2,8,-1
 468 690 l 2,9,10
 630 690 630 690 630 528 c 2,11,-1
 630 271 l 2,12,13
 630 211 630 211 595 165 c 2,14,-1
 554 110 l 1,15,-1
 650 110 l 1,16,-1
 650 0 l 1,17,-1
 405 0 l 1,18,-1
 405 94 l 1,19,-1
 490 208 l 2,20,21
 508 232 508 232 508 265 c 2,22,-1
 508 536 l 2,23,24
 508 580 508 580 464 580 c 2,25,-1
 241 580 l 2,26,27
 197 580 197 580 197 536 c 2,28,-1
 197 265 l 2,29,30
 197 232 197 232 215 208 c 2,31,-1
 300 94 l 1,32,-1
 300 0 l 1,33,-1
 55 0 l 1,0,-1
EndSplineSet
EndChar

StartChar: estimated
Encoding: 338 8494 338
Width: 880
Flags: W
LayerCount: 2
Fore
SplineSet
60 345 m 128,-1,1
 60 494 60 494 171.5 599.5 c 128,-1,2
 283 705 283 705 440 705 c 128,-1,3
 597 705 597 705 708.5 599.5 c 128,-1,4
 820 494 820 494 820 325 c 1,5,-1
 200 325 l 1,6,-1
 200 127 l 1,7,8
 305 25 305 25 440 25 c 128,-1,9
 575 25 575 25 687 133 c 1,10,-1
 719 100 l 1,11,12
 597 -15 597 -15 440 -15 c 128,-1,13
 283 -15 283 -15 171.5 90.5 c 128,-1,0
 60 196 60 196 60 345 c 128,-1,1
200 365 m 1,14,-1
 680 365 l 1,15,-1
 680 563 l 1,16,17
 575 665 575 665 440 665 c 128,-1,18
 305 665 305 665 200 563 c 1,19,-1
 200 365 l 1,14,-1
EndSplineSet
EndChar

StartChar: partialdiff
Encoding: 339 8706 339
Width: 583
Flags: W
LayerCount: 2
Fore
SplineSet
67 158 m 2,0,-1
 67 315 l 2,1,2
 67 473 67 473 225 473 c 2,3,-1
 396 473 l 1,4,-1
 396 515 l 2,5,6
 396 638 396 638 272 638 c 2,7,-1
 111 638 l 1,8,-1
 111 701 l 1,9,-1
 164 740 l 1,10,-1
 269 740 l 2,11,12
 512 740 512 740 512 497 c 2,13,-1
 512 158 l 2,14,15
 512 0 512 0 355 0 c 2,16,-1
 225 0 l 2,17,18
 67 0 67 0 67 158 c 2,0,-1
184 148 m 2,19,20
 184 102 184 102 230 102 c 2,21,-1
 349 102 l 2,22,23
 396 102 396 102 396 148 c 2,24,-1
 396 371 l 1,25,-1
 230 371 l 2,26,27
 184 371 184 371 184 325 c 2,28,-1
 184 148 l 2,19,20
EndSplineSet
EndChar

StartChar: Delta
Encoding: 340 8710 340
Width: 663
Flags: W
LayerCount: 2
Fore
SplineSet
19 24 m 1,0,-1
 233 690 l 1,1,-1
 429 690 l 1,2,-1
 644 24 l 1,3,-1
 628 0 l 1,4,-1
 35 0 l 1,5,-1
 19 24 l 1,0,-1
168 110 m 1,6,-1
 494 110 l 1,7,-1
 344 580 l 1,8,-1
 319 580 l 1,9,-1
 168 110 l 1,6,-1
EndSplineSet
EndChar

StartChar: product
Encoding: 341 8719 341
Width: 705
Flags: W
LayerCount: 2
Fore
SplineSet
85 -100 m 1,0,-1
 85 690 l 1,1,-1
 620 690 l 1,2,-1
 620 -100 l 1,3,-1
 498 -100 l 1,4,-1
 498 580 l 1,5,-1
 207 580 l 1,6,-1
 207 -100 l 1,7,-1
 85 -100 l 1,0,-1
EndSplineSet
EndChar

StartChar: summation
Encoding: 342 8721 342
Width: 593
Flags: W
LayerCount: 2
Fore
SplineSet
50 -5 m 1,0,-1
 260 295 l 1,1,-1
 50 595 l 1,2,-1
 50 690 l 1,3,-1
 543 690 l 1,4,-1
 543 580 l 1,5,-1
 198 580 l 1,6,-1
 398 295 l 1,7,-1
 198 10 l 1,8,-1
 543 10 l 1,9,-1
 543 -100 l 1,10,-1
 50 -100 l 1,11,-1
 50 -5 l 1,0,-1
EndSplineSet
EndChar

StartChar: minus
Encoding: 343 8722 343
Width: 578
Flags: W
LayerCount: 2
Fore
SplineSet
61 285 m 1,0,-1
 61 385 l 1,1,-1
 517 385 l 1,2,-1
 517 285 l 1,3,-1
 61 285 l 1,0,-1
EndSplineSet
EndChar

StartChar: radical
Encoding: 346 8730 346
Width: 600
Flags: W
LayerCount: 2
Fore
SplineSet
20 315 m 1,0,-1
 20 400 l 1,1,-1
 187 400 l 1,2,-1
 279 124 l 1,3,-1
 511 794 l 1,4,-1
 600 764 l 1,5,-1
 329 -10 l 1,6,-1
 223 -10 l 1,7,-1
 112 315 l 1,8,-1
 20 315 l 1,0,-1
EndSplineSet
EndChar

StartChar: infinity
Encoding: 347 8734 347
Width: 613
Flags: W
LayerCount: 2
Fore
SplineSet
35 293 m 2,0,-1
 35 377 l 2,1,2
 35 491 35 491 149 491 c 2,3,-1
 234 491 l 2,4,5
 272 491 272 491 306 457 c 1,6,7
 340 491 340 491 378 491 c 2,8,-1
 464 491 l 2,9,10
 578 491 578 491 578 377 c 2,11,-1
 578 293 l 2,12,13
 578 179 578 179 464 179 c 2,14,-1
 378 179 l 2,15,16
 340 179 340 179 306 213 c 1,17,18
 272 179 272 179 234 179 c 2,19,-1
 149 179 l 2,20,21
 35 179 35 179 35 293 c 2,0,-1
127 281 m 2,22,23
 127 262 127 262 146 262 c 2,24,-1
 241 262 l 2,25,26
 260 262 260 262 260 281 c 2,27,-1
 260 389 l 2,28,29
 260 408 260 408 241 408 c 2,30,-1
 146 408 l 2,31,32
 127 408 127 408 127 389 c 2,33,-1
 127 281 l 2,22,23
352 281 m 2,34,35
 352 262 352 262 372 262 c 2,36,-1
 466 262 l 2,37,38
 486 262 486 262 486 281 c 2,39,-1
 486 389 l 2,40,41
 486 408 486 408 466 408 c 2,42,-1
 372 408 l 2,43,44
 352 408 352 408 352 389 c 2,45,-1
 352 281 l 2,34,35
EndSplineSet
EndChar

StartChar: integral
Encoding: 348 8747 348
Width: 457
Flags: W
LayerCount: 2
Fore
SplineSet
20 -98 m 1,0,-1
 124 -98 l 2,1,2
 170 -98 170 -98 170 -52 c 2,3,-1
 170 582 l 2,4,5
 170 740 170 740 328 740 c 2,6,-1
 384 740 l 1,7,-1
 437 701 l 1,8,-1
 437 638 l 1,9,-1
 333 638 l 2,10,11
 287 638 287 638 287 592 c 2,12,-1
 287 -42 l 2,13,14
 287 -200 287 -200 129 -200 c 2,15,-1
 73 -200 l 1,16,-1
 20 -161 l 1,17,-1
 20 -98 l 1,0,-1
EndSplineSet
EndChar

StartChar: notequal
Encoding: 350 8800 350
Width: 578
Flags: W
LayerCount: 2
Fore
SplineSet
61 175 m 1,0,-1
 61 275 l 1,1,-1
 207 275 l 1,2,-1
 268 395 l 1,3,-1
 61 395 l 1,4,-1
 61 495 l 1,5,-1
 319 495 l 1,6,-1
 378 612 l 1,7,-1
 460 570 l 1,8,-1
 422 495 l 1,9,-1
 517 495 l 1,10,-1
 517 395 l 1,11,-1
 371 395 l 1,12,-1
 310 275 l 1,13,-1
 517 275 l 1,14,-1
 517 175 l 1,15,-1
 259 175 l 1,16,-1
 200 58 l 1,17,-1
 118 100 l 1,18,-1
 156 175 l 1,19,-1
 61 175 l 1,0,-1
EndSplineSet
EndChar

StartChar: lessequal
Encoding: 351 8804 351
Width: 578
Flags: W
LayerCount: 2
Fore
SplineSet
61 0 m 1,0,-1
 61 100 l 1,1,-1
 517 100 l 1,2,-1
 517 0 l 1,3,-1
 61 0 l 1,0,-1
64 334 m 1,4,-1
 64 444 l 1,5,-1
 478 642 l 1,6,-1
 520 553 l 1,7,-1
 171 389 l 1,8,-1
 520 225 l 1,9,-1
 478 136 l 1,10,-1
 64 334 l 1,4,-1
EndSplineSet
EndChar

StartChar: greaterequal
Encoding: 352 8805 352
Width: 578
Flags: W
LayerCount: 2
Fore
SplineSet
61 0 m 1,0,-1
 61 100 l 1,1,-1
 517 100 l 1,2,-1
 517 0 l 1,3,-1
 61 0 l 1,0,-1
58 225 m 1,4,-1
 407 389 l 1,5,-1
 58 553 l 1,6,-1
 100 642 l 1,7,-1
 514 444 l 1,8,-1
 514 334 l 1,9,-1
 100 136 l 1,10,-1
 58 225 l 1,4,-1
EndSplineSet
EndChar

StartChar: lozenge
Encoding: 353 9674 353
Width: 578
Flags: W
LayerCount: 2
Fore
SplineSet
38 345 m 1,0,-1
 236 690 l 1,1,-1
 342 690 l 1,2,-1
 540 345 l 1,3,-1
 342 0 l 1,4,-1
 236 0 l 1,5,-1
 38 345 l 1,0,-1
144 345 m 1,6,-1
 289 92 l 1,7,-1
 434 345 l 1,8,-1
 289 598 l 1,9,-1
 144 345 l 1,6,-1
EndSplineSet
EndChar

StartChar: uniF000
Encoding: 354 61440 354
Width: 700
Flags: W
LayerCount: 2
Fore
SplineSet
50 605 m 1,0,-1
 650 605 l 1,1,-1
 350 85 l 1,2,-1
 50 605 l 1,0,-1
EndSplineSet
EndChar

StartChar: .notdef
Encoding: 357 -1 357
Width: 591
Flags: W
LayerCount: 2
Fore
SplineSet
86 0 m 1,0,-1
 86 740 l 1,1,-1
 505 740 l 1,2,-1
 505 0 l 1,3,-1
 86 0 l 1,0,-1
155 69 m 1,4,-1
 436 69 l 1,5,-1
 436 671 l 1,6,-1
 155 671 l 1,7,-1
 155 69 l 1,4,-1
EndSplineSet
EndChar

StartChar: uni030C.alt
Encoding: 358 -1 358
Width: 0
Flags: W
LayerCount: 2
Fore
SplineSet
-64 586 m 1,0,-1
 -28 765 l 1,1,-1
 52 765 l 1,2,-1
 64 747 l 1,3,-1
 5 569 l 1,4,-1
 -64 586 l 1,0,-1
EndSplineSet
EndChar

StartChar: uni0326.alt
Encoding: 359 -1 359
Width: 0
Flags: W
LayerCount: 2
Fore
SplineSet
-43 617 m 1,0,-1
 12 752 l 1,1,-1
 91 730 l 1,2,-1
 61 599 l 1,3,-1
 -31 599 l 1,4,-1
 -43 617 l 1,0,-1
EndSplineSet
EndChar

StartChar: uni0300.cap
Encoding: 360 -1 360
Width: 0
Flags: W
LayerCount: 2
Fore
SplineSet
-451 873 m 1,0,-1
 -384 937 l 1,1,-1
 -250 784 l 1,2,-1
 -307 729 l 1,3,-1
 -451 873 l 1,0,-1
EndSplineSet
EndChar

StartChar: uni0301.cap
Encoding: 361 -1 361
Width: 0
Flags: W
LayerCount: 2
Fore
SplineSet
-403 784 m 1,0,-1
 -268 937 l 1,1,-1
 -201 873 l 1,2,-1
 -345 729 l 1,3,-1
 -403 784 l 1,0,-1
EndSplineSet
EndChar

StartChar: uni0302.cap
Encoding: 362 -1 362
Width: 0
Flags: W
LayerCount: 2
Fore
SplineSet
-476 790 m 1,0,-1
 -326 937 l 1,1,-1
 -176 790 l 1,2,-1
 -228 736 l 1,3,-1
 -326 829 l 1,4,-1
 -425 736 l 1,5,-1
 -476 790 l 1,0,-1
EndSplineSet
EndChar

StartChar: uni0303.cap
Encoding: 363 -1 363
Width: 0
Flags: W
LayerCount: 2
Fore
SplineSet
-495 802 m 1,0,-1
 -432 865 l 2,1,2
 -412 885 -412 885 -379 885 c 128,-1,3
 -346 885 -346 885 -326 865 c 2,4,-1
 -284 823 l 2,5,6
 -279 818 -279 818 -274 818 c 128,-1,7
 -269 818 -269 818 -264 823 c 2,8,-1
 -209 878 l 1,9,-1
 -158 826 l 1,10,-1
 -221 763 l 2,11,12
 -241 743 -241 743 -274 743 c 128,-1,13
 -307 743 -307 743 -327 763 c 2,14,-1
 -369 805 l 2,15,16
 -374 810 -374 810 -379 810 c 128,-1,17
 -384 810 -384 810 -389 805 c 2,18,-1
 -444 750 l 1,19,-1
 -495 802 l 1,0,-1
EndSplineSet
EndChar

StartChar: uni0304.cap
Encoding: 364 -1 364
Width: 0
Flags: W
LayerCount: 2
Fore
SplineSet
-466 776 m 1,0,-1
 -466 860 l 1,1,-1
 -186 860 l 1,2,-1
 -186 776 l 1,3,-1
 -466 776 l 1,0,-1
EndSplineSet
EndChar

StartChar: uni0306.cap
Encoding: 365 -1 365
Width: 0
Flags: W
LayerCount: 2
Fore
SplineSet
-459 832 m 2,0,-1
 -459 894 l 1,1,-1
 -389 894 l 1,2,-1
 -389 834 l 2,3,4
 -389 822 -389 822 -377 822 c 2,5,-1
 -275 822 l 2,6,7
 -263 822 -263 822 -263 834 c 2,8,-1
 -263 894 l 1,9,-1
 -193 894 l 1,10,-1
 -193 832 l 2,11,12
 -193 752 -193 752 -273 752 c 2,13,-1
 -379 752 l 2,14,15
 -459 752 -459 752 -459 832 c 2,0,-1
EndSplineSet
EndChar

StartChar: uni0307.cap
Encoding: 366 -1 366
Width: 0
Flags: W
LayerCount: 2
Fore
SplineSet
-387 769 m 1,0,-1
 -387 887 l 1,1,-1
 -266 887 l 1,2,-1
 -266 769 l 1,3,-1
 -387 769 l 1,0,-1
EndSplineSet
EndChar

StartChar: uni0308.cap
Encoding: 367 -1 367
Width: 0
Flags: W
LayerCount: 2
Fore
SplineSet
-475 763 m 1,0,-1
 -475 873 l 1,1,-1
 -370 873 l 1,2,-1
 -370 763 l 1,3,-1
 -475 763 l 1,0,-1
-283 763 m 1,4,-1
 -283 873 l 1,5,-1
 -177 873 l 1,6,-1
 -177 763 l 1,7,-1
 -283 763 l 1,4,-1
EndSplineSet
EndChar

StartChar: uni030A.cap
Encoding: 368 -1 368
Width: 0
Flags: W
LayerCount: 2
Fore
SplineSet
-437 801 m 2,0,-1
 -437 859 l 2,1,2
 -437 935 -437 935 -361 935 c 2,3,-1
 -292 935 l 2,4,5
 -215 935 -215 935 -215 859 c 2,6,-1
 -215 801 l 2,7,8
 -215 725 -215 725 -292 725 c 2,9,-1
 -361 725 l 2,10,11
 -437 725 -437 725 -437 801 c 2,0,-1
-369 797 m 2,12,13
 -369 785 -369 785 -356 785 c 2,14,-1
 -296 785 l 2,15,16
 -284 785 -284 785 -284 797 c 2,17,-1
 -284 863 l 2,18,19
 -284 875 -284 875 -296 875 c 2,20,-1
 -356 875 l 2,21,22
 -369 875 -369 875 -369 863 c 2,23,-1
 -369 797 l 2,12,13
EndSplineSet
EndChar

StartChar: uni030B.cap
Encoding: 369 -1 369
Width: 0
Flags: W
LayerCount: 2
Fore
SplineSet
-477 778 m 1,0,-1
 -362 937 l 1,1,-1
 -291 882 l 1,2,-1
 -417 729 l 1,3,-1
 -477 778 l 1,0,-1
-299 778 m 1,4,-1
 -185 937 l 1,5,-1
 -114 882 l 1,6,-1
 -239 729 l 1,7,-1
 -299 778 l 1,4,-1
EndSplineSet
EndChar

StartChar: uni030C.cap
Encoding: 370 -1 370
Width: 0
Flags: W
LayerCount: 2
Fore
SplineSet
-476 873 m 1,0,-1
 -425 927 l 1,1,-1
 -326 834 l 1,2,-1
 -228 927 l 1,3,-1
 -176 873 l 1,4,-1
 -326 726 l 1,5,-1
 -476 873 l 1,0,-1
EndSplineSet
EndChar

StartChar: zero.zero
Encoding: 371 -1 371
Width: 578
Flags: W
LayerCount: 2
Fore
SplineSet
56 162 m 2,0,-1
 56 528 l 2,1,2
 56 690 56 690 219 690 c 2,3,-1
 359 690 l 2,4,5
 522 690 522 690 522 528 c 2,6,-1
 522 162 l 2,7,8
 522 0 522 0 359 0 c 2,9,-1
 219 0 l 2,10,11
 56 0 56 0 56 162 c 2,0,-1
178 154 m 2,12,13
 178 110 178 110 222 110 c 2,14,-1
 356 110 l 2,15,16
 400 110 400 110 400 154 c 2,17,-1
 400 536 l 2,18,19
 400 580 400 580 356 580 c 2,20,-1
 222 580 l 2,21,22
 178 580 178 580 178 536 c 2,23,-1
 178 154 l 2,12,13
239 280 m 1,24,-1
 239 410 l 1,25,-1
 339 410 l 1,26,-1
 339 280 l 1,27,-1
 239 280 l 1,24,-1
EndSplineSet
EndChar

